<?xml version="1.0" encoding="UTF-8" standalone="no"?>
<!-- Generator: Adobe Illustrator 27.0.1, SVG Export Plug-In . SVG Version: 6.00 Build 0)  -->

<svg
   version="1.1"
   id="svg9"
   inkscape:export-ydpi="96"
   x="0px"
   y="0px"
   viewBox="0 0 500 125"
   style="enable-background:new 0 0 500 125;"
   xml:space="preserve"
   sodipodi:docname="logo.svg"
   inkscape:version="1.2.2 (732a01da63, 2022-12-09)"
   xmlns:inkscape="http://www.inkscape.org/namespaces/inkscape"
   xmlns:sodipodi="http://sodipodi.sourceforge.net/DTD/sodipodi-0.dtd"
   xmlns:xlink="http://www.w3.org/1999/xlink"
   xmlns="http://www.w3.org/2000/svg"
   xmlns:svg="http://www.w3.org/2000/svg"><defs
   id="defs37" />
<style
   type="text/css"
   id="style2">
	.st0{fill:#192436;stroke:#E8E2E2;stroke-width:1.2958;stroke-linecap:round;stroke-linejoin:round;}
	.st1{fill:#FFFF00;stroke:#AE9C86;stroke-width:3.4954;stroke-linecap:round;stroke-miterlimit:3.4954;}
	.st2{fill:none;stroke:#AE9C86;stroke-width:3.525;stroke-linecap:round;stroke-linejoin:round;stroke-miterlimit:6.0068;}
	.st3{enable-background:new    ;}
	.st4{fill:#E9E2E2;}
</style>
<sodipodi:namedview
   bordercolor="#000000"
   borderopacity="0.25"
   id="namedview11"
   inkscape:current-layer="g15"
   inkscape:cx="235.78087"
   inkscape:cy="145.52865"
   inkscape:deskcolor="#ffffff"
   inkscape:pagecheckerboard="0"
   inkscape:pageopacity="1"
   inkscape:showpageshadow="2"
   inkscape:window-height="1001"
   inkscape:window-maximized="1"
   inkscape:window-width="1920"
   inkscape:window-x="-9"
   inkscape:window-y="-9"
   inkscape:zoom="2.044271"
   pagecolor="#ffffff"
   showgrid="false">
	</sodipodi:namedview>
<g
   id="layer3"
   transform="matrix(1.3280216,0,0,0.35618899,-120.42554,-38.121156)"
   inkscape:groupmode="layer"
   inkscape:label="Background"
   sodipodi:insensitive="true">
	<rect
   id="rect1769"
   x="88.2"
   y="83.9"
   class="st0"
   width="383.7"
   height="389.6" />
</g>
<g
   id="g15"
   transform="matrix(0.87384925,0,0,0.87384925,-82.057957,-270.53532)"
   inkscape:groupmode="layer"
   inkscape:label="Image">
	
		<image
   style="display:none;overflow:visible;opacity:0.57;enable-background:new"
   width="768"
   height="768"
   id="image17"
   xlink:href="..%5CB6784F0A.jpeg"
   inkscape:svg-dpi="1"
   sodipodi:insensitive="true">
	</image>
	<path
   id="path2561"
   class="st1"
   d="M129.4,351.8l213.1,0.3" />
	<path
   id="path2561-2"
   class="st1"
   d="M417.6,352.2l213.1,0.3" />
	
		<g
   id="layer1"
   transform="matrix(1.7184892,0,0,1.7184892,350.68559,304.23228)"
   inkscape:groupmode="layer"
   inkscape:label="Crown">
		<path
   id="path4095-9"
   class="st2"
   d="M17,14.6l-4,9l-7.3-4.3l2.2,12.5l9-0.1" />
		<path
   id="path4095-3-2"
   class="st2"
   d="M17.1,14.6l4,9l7.3-4.3l-2.2,12.5l-9-0.1" />
	</g>
	<g
   class="st3"
   id="g33">
		<path
   class="st4"
   d="M188.7,380.3c0.5,0,0.9,0,1.2,0c0.3,0,0.6,0,0.9,0.1c0.4,0,0.6,0.1,0.7,0.2c0.1,0.1,0.1,0.2,0.1,0.5    c0,0.4-0.3,0.6-1,0.7c-0.5,0-1,0.2-1.5,0.4c-0.5,0.2-0.9,0.4-1.3,0.7c-0.6,0.5-1.1,1.2-1.3,2.1c-0.2,0.9-0.3,2.4-0.4,4.5    l-0.1,13.3c0,1.7,0,3.3,0,4.9c0,1.6,0,3-0.1,4.3c0,1.3,0,2.3,0,3.1c0,0.8,0,1.2,0,1.3l0.1,8c0,2.3,0.1,3.9,0.2,4.8    c0.1,0.9,0.3,1.6,0.7,2c0.4,0.5,1.2,0.9,2.5,1.1c0.9,0.1,1.5,0.3,1.7,0.4c0.2,0.1,0.4,0.4,0.4,0.7c0,0.5-0.4,0.7-1.2,0.7l-1.2-0.1    c-0.6,0-1.2,0-1.8-0.1c-0.5,0-1,0-1.6,0c-0.5,0-1,0-1.4,0h-1.8c-0.2,0-0.5,0-0.9,0c-0.4,0-0.9,0-1.5,0s-1.1,0-1.6,0    c-0.5,0-0.9,0-1.3,0h-1.6c-0.5,0-0.7-0.2-0.7-0.6c0-0.4,0.2-0.6,0.7-0.7l1.4-0.3c0.5-0.1,1-0.4,1.5-0.8c0.5-0.5,0.9-1,1.1-1.6    c0.3-0.8,0.5-1.8,0.5-2.9c0-0.7,0.1-1.5,0.1-2.4c0-0.8,0.1-1.7,0.1-2.8c0-1.1,0-2.3,0.1-3.6l0.1-10.2c0-0.5-0.2-0.7-0.7-0.7h-27.4    c-0.1,0-0.4,0-0.6,0c-0.3,0-0.6,0-0.9,0c-0.3,0-0.6,0-0.9,0s-0.5,0-0.5,0c-0.4,0-0.6,0-0.7,0.1c-0.1,0.1-0.2,0.3-0.2,0.6v11.1    l0.2,6.2c0,1.2,0.1,2.1,0.1,2.8c0,0.7,0.1,1.2,0.2,1.6c0.1,0.4,0.2,0.7,0.4,0.9c0.2,0.2,0.4,0.4,0.6,0.6c0.3,0.2,0.8,0.5,1.3,0.7    c0.6,0.2,1.2,0.4,1.9,0.5c0.8,0.1,1.2,0.4,1.2,0.7c0,0.3-0.1,0.5-0.3,0.5c-0.1,0-0.2,0.1-0.3,0.1c-1.1,0-2.2,0-3.3-0.1    c-0.9,0-1.9,0-2.9,0c-1,0-2,0-2.8,0c-0.8,0-1.4,0-2,0c-0.6,0-1.1,0-1.4,0c-0.5,0-0.8,0.1-1.2,0.1c-0.3,0-0.6,0.1-0.8,0.1h-1.3    c-0.4,0-0.5-0.2-0.5-0.7c0-0.4,0.2-0.6,0.5-0.7l1.1-0.4c0.5-0.1,1.1-0.4,1.7-0.9c0.6-0.5,1.1-0.9,1.3-1.4c0.5-0.9,0.8-2.5,0.8-5    v-4.1c0-1,0-2,0-2.9c0-0.9,0-1.4,0-1.6v-20.5c0-1.6,0-3,0-4.2c0-1.2,0-2.1,0-2.9c0-0.8,0-1.4-0.1-2c0-0.5-0.1-1-0.1-1.4    c-0.1-0.9-0.3-1.7-0.7-2.3c-0.4-0.7-0.9-1.1-1.7-1.3c-0.1,0-0.3-0.1-0.5-0.1c-0.2,0-0.5-0.1-0.7-0.1c-0.3,0-0.6-0.1-0.9-0.1    c-0.4,0-0.6-0.2-0.6-0.5c0-0.3,0.1-0.5,0.2-0.5c0.1-0.1,0.4-0.1,0.8-0.1h1.8c0.8,0,1.6,0,2.3,0c0.8,0,1.6,0,2.3,0c1,0,2,0,3.1,0    c1.1,0,2.3,0,3.8,0h1.2c0.7,0,1,0.2,1,0.7c0,0.5-0.5,0.7-1.6,0.9c-0.6,0.1-1.2,0.3-1.8,0.6c-0.5,0.3-1,0.7-1.4,1.1    c-0.2,0.3-0.4,0.6-0.5,1c-0.1,0.3-0.2,0.8-0.3,1.4c-0.1,0.6-0.1,1.3-0.2,2.2c0,0.9,0,1.9,0,3.3l0.1,12.2c0,0.5,0.2,0.8,0.5,0.8    H180c0.6,0,0.9-0.4,0.9-1.3c0-1.3-0.1-2.5-0.1-3.7c0-0.9-0.1-1.9-0.1-2.8c0-0.9,0-1.5,0-1.9v-6.5c0-1.3-0.2-2.5-0.5-3.5    c-0.3-1-0.8-1.8-1.4-2.2c-0.3-0.3-1-0.5-2-0.7l-1.8-0.3c-0.3-0.1-0.5-0.3-0.5-0.6c0-0.5,0.4-0.7,1.1-0.7l3.8,0.1    c0.9,0,1.8,0.1,2.7,0.1c0.8,0,1.3,0,1.4,0c1.4,0,2.5,0,3.2-0.1S188.3,380.3,188.7,380.3z"
   id="path13" />
		<path
   class="st4"
   d="M224.7,434.8c-3.4,0-6.6-0.5-9.5-1.4c-2.9-0.9-5.2-1.9-7-3.1c-3.7-2.4-6.5-5.8-8.5-10.2c-2-4.3-3-9.2-3-14.6    c0-3.7,0.7-7.1,2-10.3s3.1-5.9,5.5-8.2c2.3-2.3,5.1-4.1,8.3-5.4c3.2-1.3,6.7-1.9,10.4-1.9c3.1,0,6.1,0.4,8.8,1.1    c2.8,0.7,5.2,1.7,7.3,3c1.8,1.1,3.5,2.5,4.9,4.2c1.5,1.7,2.7,3.5,3.8,5.6c1,2,1.8,4.2,2.4,6.6c0.5,2.3,0.8,4.7,0.8,7.2    c0,1.1-0.1,2.2-0.2,3.3c-0.1,1.1-0.3,2.3-0.5,3.5c-0.5,2.8-1.2,5.1-2.2,7.1c-1,2-2.3,3.9-3.9,5.7c-2.4,2.6-5.2,4.5-8.3,5.7    c-3.1,1.2-6.6,1.9-10.4,2H224.7z M224.8,432.5c3.2,0,6-0.5,8.5-1.6c2.5-1.1,4.6-2.6,6.4-4.6c1.7-2,3.1-4.4,4-7.3    c0.9-2.9,1.4-6.1,1.4-9.6c0-4.3-0.7-8.2-2.2-11.8c-1.4-3.6-3.6-6.7-6.4-9.4c-2.1-1.9-4.2-3.3-6.5-4.2c-2.2-0.9-4.9-1.3-7.9-1.3    c-2.7,0-4.9,0.3-6.8,0.9c-1.9,0.6-3.7,1.6-5.5,3c-2.7,2.1-4.7,4.5-6,7.3c-1.3,2.8-1.9,6.1-1.9,9.9c0,3.9,0.6,7.6,1.8,11.1    c1.2,3.5,2.9,6.5,5,9.2c2.1,2.6,4.5,4.7,7.3,6.2C218.8,431.7,221.7,432.5,224.8,432.5z"
   id="path15" />
		<path
   class="st4"
   d="M253.9,381.1c0.1-0.5,0.2-0.7,0.3-0.8c0.1-0.1,0.3-0.1,0.5-0.1c3.7,0.1,7,0.2,9.9,0.2c1.3,0,2.5,0,3.7,0    c1.2,0,2.3,0,3.3,0.1c1,0,1.8,0,2.4,0c0.6,0,1,0,1.2,0h17.5l3.6-0.2c0.5,0,0.8,0.1,0.9,0.3c0.1,0.2,0.2,0.6,0.2,1.3    c0,0.3,0,0.5,0,0.7c0,0.2-0.1,0.5-0.1,0.7l-1.2,5.2c-0.1,0.5-0.3,0.7-0.7,0.7c-0.4,0-0.5-0.2-0.5-0.6c0-0.2,0-0.5,0.1-0.7    c0-0.2,0.1-0.5,0.1-0.8c0-0.8-0.1-1.3-0.2-1.5c-0.1-0.2-0.4-0.5-0.8-0.7c-0.6-0.4-1.6-0.6-2.8-0.7c-1.2-0.1-3-0.2-5.2-0.2    c-1.2,0-2.3,0-3.4,0c-1.1,0-2,0.1-2.8,0.2l-1.5,0.1c-0.5,0-0.8,0.3-0.9,0.7c0,0.3-0.1,0.5-0.1,0.7v1.1v41.1c0,1.3,0.3,2.3,1,3    c0.7,0.7,1.8,1.1,3.5,1.5l1.4,0.3c0.2,0.1,0.5,0.2,0.7,0.2c0.3,0,0.4,0.2,0.4,0.6c0,0.5-0.3,0.7-0.9,0.7h-1.4l-15.3-0.1    c-0.2,0-0.4,0-0.7,0c-0.3,0-0.5,0-0.7,0c-0.4,0-0.5-0.2-0.5-0.7c0-0.2,0.1-0.4,0.3-0.5c0.1,0,0.3-0.1,0.7-0.2    c0.2,0,0.4-0.1,0.5-0.1l2.4-0.5c0.6-0.1,1.2-0.4,1.7-0.8c0.5-0.4,0.8-0.9,1-1.4c0.2-0.6,0.4-1.6,0.4-3.1c0.1-1.5,0.1-3.7,0.1-6.5    l0.1-34.1c0-0.5,0-1-0.1-1.3c-0.1-0.3-0.2-0.6-0.5-0.7c-0.3-0.2-0.7-0.3-1.2-0.3c-0.5,0-1.2-0.1-2.1-0.1c-0.7,0-1.4,0-2.2,0    c-0.8,0-1.6,0-2.5,0.1c-1.9,0.1-3.3,0.2-4.2,0.3c-1,0.1-1.8,0.3-2.5,0.6c-1.4,0.5-2.6,2-3.7,4.3c-0.1,0.2-0.2,0.4-0.3,0.4    c-0.1,0.1-0.2,0.1-0.3,0.1c-0.4,0-0.6-0.1-0.6-0.4c0-0.1,0-0.3,0.1-0.5l0.6-2l0.6-3.1L253.9,381.1z"
   id="path17" />
		<path
   class="st4"
   d="M314.5,383.4c-0.5,0-0.8,0.1-1,0.2c-0.2,0.1-0.3,0.3-0.3,0.6l-0.1,2v15.9v1.7c0,0.4,0,0.6,0.1,0.6    c0.1,0.1,0.2,0.1,0.5,0.1H324c1,0,1.7,0,2.3-0.1c0.6-0.1,1.1-0.2,1.5-0.4c0.4-0.2,0.6-0.5,0.8-0.9s0.3-0.9,0.4-1.5    c0.1-0.5,0.2-0.9,0.3-1.1c0.1-0.2,0.3-0.3,0.5-0.3c0.4,0,0.5,0.3,0.5,0.7l-0.2,2.3v3.7l0.4,4.8v1c0,0.4-0.2,0.5-0.5,0.5    c-0.2,0-0.4-0.1-0.5-0.4c-0.1-0.2-0.2-0.8-0.3-1.5c-0.2-1.3-0.7-2.3-1.3-2.8c-0.7-0.6-1.6-0.9-3-0.9c-0.5,0-1.1-0.1-1.8-0.1    c-0.6,0-1.3,0-2.1,0s-1.7,0-2.7-0.1c-0.3,0-0.7,0-1.2,0c-0.5,0-1,0.1-1.5,0.1c-0.6,0-1.2,0.1-1.9,0.1h-0.5    c-0.1,0.1-0.2,0.2-0.2,0.5l0.3,16.4c0,1.4,0.1,2.5,0.2,3.3c0.1,0.8,0.3,1.5,0.5,2c0.2,0.5,0.6,0.8,1.1,1s1.1,0.3,1.9,0.3    c0.8,0,1.5,0.1,2,0.1c0.5,0,0.9,0,1.1,0.1c0.2,0,0.4,0,0.5,0c0.1,0,0.2,0,0.3,0c0.9,0,1.9,0,2.9-0.1c1,0,1.9-0.1,2.8-0.2    c0.9-0.1,1.6-0.2,2.3-0.3c0.7-0.1,1.2-0.2,1.4-0.3c0.6-0.2,1.2-0.6,1.9-1.2c0.7-0.5,1.2-1.1,1.6-1.6c0.2-0.4,0.4-0.8,0.6-1.2    c0.2-0.4,0.4-1,0.6-1.7c0.1-0.5,0.3-0.7,0.6-0.7c0.4,0,0.6,0.2,0.6,0.6c0,0.3-0.1,0.9-0.2,1.7c-0.2,0.8-0.4,1.6-0.6,2.3l-0.8,2.9    c-0.2,0.9-0.5,1.6-0.7,1.8c-0.2,0.2-0.7,0.4-1.3,0.4h-1.2c-0.6,0-1.8,0-3.6-0.1c-1.8,0-4.3-0.1-7.4-0.1c-4.2,0-7.7,0-10.6,0.1    c-2.8,0-4.7,0.1-5.6,0.1l-1.3,0.1c-0.4,0-0.5-0.2-0.5-0.5c0-0.2,0.1-0.4,0.3-0.5c0.2-0.1,0.6-0.2,1.3-0.4c0.4-0.1,0.9-0.3,1.4-0.5    c0.5-0.2,1-0.5,1.3-0.7c0.4-0.3,0.6-0.6,0.8-1.1c0.2-0.5,0.3-1.2,0.3-2.3l0.1-3.2v-22.6c0-2.5,0-4.8-0.1-6.9c0-0.9,0-1.7,0-2.6    c0-0.9,0-1.7-0.1-2.4c0-0.7,0-1.3,0-1.8c0-0.5,0-0.8,0-0.8c-0.1-1.2-0.2-2.2-0.3-3.1c-0.1-0.8-0.3-1.5-0.7-2    c-0.4-0.6-1.1-0.9-2.1-1l-1.6-0.1c-0.5-0.1-0.7-0.3-0.7-0.7c0-0.5,0.4-0.7,1.1-0.7l7.1,0.1c0.9,0,1.7,0,2.6,0c0.9,0,1.6,0,2.3,0.1    c0.7,0,1.2,0,1.7,0s0.7,0,0.7,0c3.9-0.1,7-0.2,9.1-0.2c2.1,0,3.7-0.1,4.8-0.1c1,0,1.6,0,1.8,0c0.2,0,0.3,0,0.3,0    c0.3,0,0.5,0.1,0.6,0.3c0.2,0.2,0.2,0.5,0.2,0.8v0.5c0,0.2-0.1,0.5-0.1,0.7c0,0.2,0,0.5,0,0.8c0,0.7,0,1.4,0.1,2.2    c0,0.7,0.1,1.4,0.2,2c0,0.2,0.1,0.4,0.1,0.6c0,0.2,0,0.3,0,0.4c0,0.7-0.2,1.1-0.7,1.1c-0.3,0-0.6-0.2-0.7-0.7l-0.4-1.3    c-0.3-0.9-0.6-1.6-1-2.2c-0.4-0.6-0.9-1.1-1.5-1.4c-0.6-0.3-1.3-0.6-2.2-0.7c-0.9-0.1-1.9-0.2-3.1-0.2h-8.5L314.5,383.4z"
   id="path19" />
		<path
   class="st4"
   d="M355.9,380.4c0.5,0,0.7,0.2,0.7,0.6c0,0.5-0.6,0.7-1.7,0.8c-0.4,0-0.9,0.1-1.4,0.2c-0.5,0.1-0.9,0.3-1.2,0.5    c-0.4,0.3-0.6,0.6-0.8,1c-0.2,0.4-0.3,1.3-0.4,2.7c0,1.5-0.1,2.8-0.1,4c0,1-0.1,2-0.1,2.9c0,0.9,0,1.4,0,1.5l0.1,25.1    c0,2.7,0,4.7,0.1,6.1c0.1,1.4,0.2,2.6,0.4,3.4c0.2,0.9,0.6,1.4,1.1,1.7c0.6,0.3,1.6,0.4,3.2,0.4l4.8-0.1c1.9,0,3.5-0.2,4.9-0.4    c1.4-0.2,2.5-0.5,3.5-1c0.9-0.5,1.7-1.1,2.4-1.8c0.6-0.7,1.2-1.7,1.6-2.8c0.3-0.6,0.6-1,0.9-1c0.4,0,0.6,0.2,0.6,0.5    c0,0.2-0.1,0.6-0.2,1.2l-1.9,6.9c-0.2,0.7-0.6,1-1.2,1h-29.9c-0.5,0-0.7-0.2-0.7-0.5c0-0.3,0.1-0.5,0.2-0.5    c0.1-0.1,0.5-0.2,0.9-0.3c0.5-0.1,1-0.2,1.6-0.4c0.6-0.2,1.1-0.4,1.4-0.6c0.5-0.2,0.7-0.6,0.8-1c0.1-0.4,0.2-1.1,0.3-1.9l0.1-2.4    v-32.3c0-2.2,0-4-0.1-5.6c-0.1-1.6-0.2-2.8-0.3-3.6c-0.1-0.9-0.4-1.5-0.7-1.9c-0.4-0.4-1-0.6-1.8-0.7c-0.5-0.1-0.9-0.1-1.2-0.2    c-0.3,0-0.5-0.1-0.6-0.1c-0.5,0-0.8-0.3-0.8-0.7c0-0.4,0.2-0.6,0.7-0.6l7.3,0.1L355.9,380.4z"
   id="path21" />
		<path
   class="st4"
   d="M432.1,434.8c-3.4,0-6.6-0.5-9.5-1.4c-2.9-0.9-5.2-1.9-7-3.1c-3.7-2.4-6.5-5.8-8.5-10.2c-2-4.3-3-9.2-3-14.6    c0-3.7,0.7-7.1,2-10.3s3.1-5.9,5.5-8.2c2.3-2.3,5.1-4.1,8.3-5.4c3.2-1.3,6.7-1.9,10.4-1.9c3.1,0,6.1,0.4,8.8,1.1    c2.8,0.7,5.2,1.7,7.3,3c1.8,1.1,3.5,2.5,4.9,4.2c1.5,1.7,2.7,3.5,3.8,5.6c1,2,1.8,4.2,2.4,6.6c0.5,2.3,0.8,4.7,0.8,7.2    c0,1.1-0.1,2.2-0.2,3.3c-0.1,1.1-0.3,2.3-0.5,3.5c-0.5,2.8-1.2,5.1-2.2,7.1c-1,2-2.3,3.9-3.9,5.7c-2.4,2.6-5.2,4.5-8.3,5.7    c-3.1,1.2-6.6,1.9-10.4,2H432.1z M432.2,432.5c3.2,0,6-0.5,8.5-1.6s4.6-2.6,6.4-4.6c1.7-2,3.1-4.4,4-7.3c0.9-2.9,1.4-6.1,1.4-9.6    c0-4.3-0.7-8.2-2.2-11.8c-1.4-3.6-3.6-6.7-6.4-9.4c-2.1-1.9-4.2-3.3-6.5-4.2c-2.2-0.9-4.9-1.3-7.9-1.3c-2.7,0-4.9,0.3-6.8,0.9    c-1.9,0.6-3.7,1.6-5.5,3c-2.7,2.1-4.7,4.5-6,7.3c-1.3,2.8-1.9,6.1-1.9,9.9c0,3.9,0.6,7.6,1.8,11.1c1.2,3.5,2.9,6.5,5,9.2    c2.1,2.6,4.5,4.7,7.3,6.2C426.2,431.7,429.1,432.5,432.2,432.5z"
   id="path23" />
		<path
   class="st4"
   d="M478.2,380.4c0.5,0,0.7,0.2,0.7,0.6c0,0.5-0.6,0.7-1.7,0.8c-0.4,0-0.9,0.1-1.4,0.2c-0.5,0.1-0.9,0.3-1.2,0.5    c-0.4,0.3-0.6,0.6-0.8,1c-0.2,0.4-0.3,1.3-0.4,2.7c0,1.5-0.1,2.8-0.1,4c0,1-0.1,2-0.1,2.9c0,0.9,0,1.4,0,1.5l0.1,25.1    c0,2.7,0,4.7,0.1,6.1c0.1,1.4,0.2,2.6,0.4,3.4c0.2,0.9,0.6,1.4,1.1,1.7c0.6,0.3,1.6,0.4,3.2,0.4l4.8-0.1c1.9,0,3.5-0.2,4.9-0.4    c1.4-0.2,2.5-0.5,3.5-1c0.9-0.5,1.7-1.1,2.4-1.8c0.6-0.7,1.2-1.7,1.6-2.8c0.3-0.6,0.6-1,0.9-1c0.4,0,0.6,0.2,0.6,0.5    c0,0.2-0.1,0.6-0.2,1.2l-1.9,6.9c-0.2,0.7-0.6,1-1.2,1h-29.9c-0.5,0-0.7-0.2-0.7-0.5c0-0.3,0.1-0.5,0.2-0.5    c0.1-0.1,0.5-0.2,0.9-0.3c0.5-0.1,1-0.2,1.6-0.4c0.6-0.2,1.1-0.4,1.4-0.6c0.5-0.2,0.7-0.6,0.8-1c0.1-0.4,0.2-1.1,0.3-1.9l0.1-2.4    v-32.3c0-2.2,0-4-0.1-5.6c-0.1-1.6-0.2-2.8-0.3-3.6c-0.1-0.9-0.4-1.5-0.7-1.9c-0.4-0.4-1-0.6-1.8-0.7c-0.5-0.1-0.9-0.1-1.2-0.2    c-0.3,0-0.5-0.1-0.6-0.1c-0.5,0-0.8-0.3-0.8-0.7c0-0.4,0.2-0.6,0.7-0.6l7.3,0.1L478.2,380.4z"
   id="path25" />
		<path
   class="st4"
   d="M513.3,425.5c0,1,0,1.8,0.1,2.5c0,0.7,0.1,1.2,0.2,1.6c0.1,0.4,0.2,0.8,0.4,1.1c0.2,0.3,0.4,0.5,0.6,0.7    c0.6,0.5,1.7,0.9,3.3,1.2c0.8,0.1,1.2,0.4,1.2,0.8c0,0.5-0.2,0.7-0.7,0.7l-1.2-0.1c-0.9,0-1.9-0.1-3.2-0.1c-1.3,0-2.8-0.1-4.5-0.1    c-1.2,0-2.3,0-3.2,0.1c-0.9,0-1.7,0.1-2.3,0.1l-1,0.1c-0.5,0-0.7-0.2-0.7-0.7c0-0.2,0.1-0.4,0.3-0.6c0.2-0.2,0.6-0.3,1.3-0.5    c1.4-0.5,2.4-1.2,3-2.4c0.2-0.4,0.3-0.8,0.4-1.2c0.1-0.4,0.2-1.1,0.2-2c0-0.9,0.1-2.2,0.1-3.8c0-1.6,0-3.8,0-6.6l0.1-27.4    c0-1.3-0.1-2.4-0.2-3.5c-0.2-2-1-3.2-2.3-3.5c-0.1,0-0.3-0.1-0.6-0.1c-0.2,0-0.5-0.1-0.7-0.1c-0.3,0-0.6-0.1-0.9-0.1    c-0.4,0-0.6-0.2-0.6-0.5c0-0.5,0.4-0.7,1.1-0.7c0.7,0,1.5,0,2.4,0.1c0.9,0,1.7,0.1,2.5,0.1h2.6c1.6,0,2.9,0,4,0    c1.1,0,2.1,0,3.2-0.1c0.5,0,0.7,0.2,0.7,0.5c0,0.5-0.5,0.8-1.5,1c-1.4,0.4-2.5,1-3.1,1.8c-0.3,0.4-0.6,1-0.7,1.7    c-0.2,0.9-0.3,2.5-0.4,4.8c-0.1,2.3-0.1,4.9-0.1,7.7v18.1L513.3,425.5z"
   id="path27" />
		<path
   class="st4"
   d="M571.7,396.1c-0.1-0.5-0.2-0.7-0.4-0.7c-0.2,0-0.3,0.1-0.4,0.3l-1.1,2.2c-1.2,2.4-2.3,5-3.5,7.7    c-1.2,2.7-2.4,5.7-3.7,8.9c-1.9,4.7-3.5,8.5-4.7,11.5c-1.2,3-2.2,5.2-2.9,6.5l-0.7,1.5c-0.2,0.4-0.4,0.5-0.6,0.5    c-0.3,0-0.6-0.2-0.7-0.6l-1-2.2c-1-2-2.1-4.6-3.4-7.6c-1.3-3-2.8-6.6-4.5-10.7c-1.5-3.8-2.9-7.1-4.1-9.8c-1.2-2.8-2.3-5.1-3.2-6.9    l-1-1.8c-0.2-0.3-0.4-0.5-0.5-0.5c-0.2,0-0.3,0.1-0.4,0.3l-0.2,1.3l-2.4,29.2l-0.1,2.9c0,0.7,0,1.2,0.1,1.5c0,0.3,0.2,0.7,0.4,1.1    c0.1,0.2,0.3,0.4,0.5,0.6c0.2,0.2,0.5,0.3,0.8,0.4c0.3,0.1,0.8,0.3,1.3,0.4c0.5,0.1,1.2,0.2,2.1,0.4c0.6,0,1,0.3,1,0.7    c0,0.5-0.4,0.7-1.2,0.7l-2.7-0.1c-0.8,0-1.6-0.1-2.6-0.1s-1.8,0-2.5,0c-0.7,0-1.4,0-1.9,0c-0.6,0-1.1,0-1.5,0.1l-1.2,0.1    c-0.5,0-0.7-0.2-0.7-0.5c0-0.4,0.4-0.6,1.2-0.8c1-0.2,1.8-0.6,2.3-1.1c0.5-0.5,0.8-1.3,1-2.3l0.4-2.6c0-0.1,0-0.3,0.1-0.7    c0-0.4,0.1-0.9,0.2-1.6c0.1-0.6,0.1-1.3,0.2-2.1c0.1-0.8,0.2-1.6,0.3-2.4c0.2-1.9,0.4-3.9,0.6-6.2l1.9-21.4    c0.2-2.5,0.4-4.5,0.5-5.8c0.1-1.3,0.1-2.5,0.1-3.4v-0.6c0-1,0.1-1.8,0.2-2.2c0.2-0.4,0.4-0.6,0.8-0.6c0.5,0,0.9,0.6,1.4,1.7    l3.9,9.8c0.1,0.4,0.5,1.1,1,2.3c0.5,1.2,1.1,2.6,1.8,4.2c0.7,1.6,1.5,3.4,2.4,5.4c0.9,2,1.8,4,2.7,6c2.1,4.7,4.4,9.9,7,15.6    c0.1,0.3,0.2,0.5,0.4,0.5c0.1,0,0.3-0.2,0.5-0.5l1.9-4.5c0.8-1.8,1.8-4.1,3-6.9c1.2-2.8,2.7-6.2,4.4-10.2c2-4.6,3.8-8.6,5.3-12.2    c1.5-3.5,2.7-6.6,3.7-9.2l0.5-1.2c0.3-0.6,0.6-1,1-1c0.5,0,0.8,0.4,0.9,1.3l0.5,9.2c0,1.2,0.1,2.3,0.2,3.3    c0.1,0.9,0.1,1.7,0.2,2.5c0,0.8,0.1,1.3,0.1,1.5l1.6,27.2c0.1,2.7,0.5,4.6,1.2,5.7c0.7,1.1,1.8,1.8,3.3,2c1.1,0.1,1.7,0.5,1.7,1    c0,0.5-0.5,0.7-1.4,0.7h-0.3h-3c-0.8,0-1.5,0-2.2,0c-0.7,0-1.1,0-1.2,0c-0.1,0-0.5,0-1,0c-0.5,0-1.1,0-1.6,0    c-0.7,0-1.4,0.1-2.2,0.1c-0.1,0-0.3,0-0.5,0c-0.2,0-0.5,0-0.8,0c-0.3,0-0.6,0-1.1,0c-0.5,0-0.7-0.2-0.7-0.7c0-0.3,0.3-0.6,1-0.9    c1.3-0.5,2.2-1.1,2.9-1.9c0.7-0.8,1-1.8,1-2.9c0-0.4,0-0.8,0-1.4c0-0.6-0.1-1.3-0.1-2.1L573,419L571.7,396.1z"
   id="path29" />
		<path
   class="st4"
   d="M589.5,434c-0.6,0-1-0.2-1-0.5c0-0.3,0.3-0.5,0.8-0.7c1.3-0.4,2.3-0.8,2.8-1.2c0.6-0.4,1-0.9,1.3-1.5    c0.3-0.8,0.5-1.7,0.6-2.7c0.1-1.2,0.2-2.9,0.2-5.1c0.1-2.2,0.1-4.6,0.1-7l0.1-26.8c0-0.6-0.1-1.1-0.1-1.6c0-0.5-0.1-0.9-0.1-1.3    c0-0.4,0-0.8-0.1-1c-0.1-0.8-0.3-1.4-0.6-1.8c-0.3-0.4-0.8-0.7-1.5-0.9l-1.9-0.3c-0.6-0.1-0.9-0.4-0.9-0.7c0-0.4,0.2-0.6,0.7-0.6    l15.6,0.3c1,0,2,0.1,2.9,0.1c0.9,0,1.7,0.1,2.5,0.3c1.6,0.2,3.2,0.7,4.7,1.5c1.5,0.8,2.7,1.7,3.6,2.9c0.9,1,1.6,2.3,2,3.7    c0.5,1.4,0.7,2.9,0.7,4.4c0,2.3-0.4,4.3-1.2,6.2c-0.8,1.9-1.8,3.5-3.2,4.8c-1.4,1.3-3,2.4-5,3.1c-1.9,0.7-4,1.1-6.3,1.1    c-0.5,0-0.9,0-1.4,0c-0.4,0-0.8-0.1-1.1-0.1l-1.5-0.3c-0.4,0-0.5-0.2-0.5-0.5c0-0.4,0.5-0.7,1.4-0.7c4.3-0.3,7.6-1.5,9.9-3.5    c2.4-2,3.5-4.7,3.5-8c0-2.4-0.4-4.4-1.3-6.1c-0.9-1.7-2.1-3.1-3.8-4c-2.3-1.2-5.5-1.8-9.6-1.8c-0.9,0-1.4,0.1-1.7,0.2    c-0.3,0.1-0.4,0.4-0.4,0.7l-0.1,2.2c-0.1,4.1-0.2,8.2-0.3,12.5c0,4.3-0.1,8.5-0.1,12.5c0,2.2,0,4.3,0.1,6.2c0,2,0.1,3.9,0.1,5.8    v3.6c0,1.4,0.3,2.5,0.8,3.2c0.6,0.7,1.5,1.3,2.8,1.7c0.5,0.2,1,0.3,1.4,0.4c0.4,0.1,0.8,0.1,1.4,0.2c0.4,0,0.5,0.3,0.5,0.7    c0,0.4-0.3,0.6-0.9,0.6h-0.9H589.5z"
   id="path31" />
	</g>
</g>
</svg>
