<svg id="e8d4f443-2e43-4879-9f7a-17a15f16bf69" data-name="Layer 1" xmlns="http://www.w3.org/2000/svg" viewBox="0 0 145.71 31.98"><defs><style>.bc908728-a26f-4e1c-b9f1-ab771378451e{fill:#54b948;}.bb3a8097-cc4b-4efb-a437-201a31614757{fill:#269241;}.e9af1304-848c-49f5-8986-fda0da4b04fb{fill:#007534;}.a3fe64d5-76f6-4e51-8045-7c1dc4f50032,.a7658573-bbee-4ae6-8711-cf7b18d61a07{fill:none;stroke:#231f20;stroke-width:0.25px;}.a7658573-bbee-4ae6-8711-cf7b18d61a07{stroke-miterlimit:10;}.a3fe64d5-76f6-4e51-8045-7c1dc4f50032{stroke-linecap:round;stroke-linejoin:round;}.ee20685e-6eb2-4ede-a73c-024724e33497{fill:#fff;}</style></defs><polygon class="bc908728-a26f-4e1c-b9f1-ab771378451e" points="35.8 0.13 38.88 5.21 12.07 5.14 14.77 10.13 18.6 17.09 15.08 21.84 3.85 0.13 35.8 0.13"/><polygon class="bb3a8097-cc4b-4efb-a437-201a31614757" points="38.88 5.21 20.19 31.86 14.35 31.86 29.15 10.13 23.78 10.13 15.04 10.13 14.77 10.13 12.07 5.14 38.88 5.21"/><polygon class="e9af1304-848c-49f5-8986-fda0da4b04fb" points="29.15 10.13 14.35 31.86 0.15 5.36 3.85 0.13 15.08 21.84 18.6 17.09 23.78 10.13 29.15 10.13"/><polygon class="a7658573-bbee-4ae6-8711-cf7b18d61a07" points="3.85 0.13 35.8 0.13 38.88 5.21 20.19 31.86 14.35 31.86 0.15 5.36 3.85 0.13"/><polyline class="a7658573-bbee-4ae6-8711-cf7b18d61a07" points="23.78 10.13 18.6 17.09 15.08 21.84 3.85 0.13"/><polyline class="a7658573-bbee-4ae6-8711-cf7b18d61a07" points="18.6 17.09 14.77 10.13 15.04 10.13"/><line class="a7658573-bbee-4ae6-8711-cf7b18d61a07" x1="12.07" y1="5.14" x2="14.77" y2="10.13"/><polyline class="a7658573-bbee-4ae6-8711-cf7b18d61a07" points="15.04 10.13 23.78 10.13 29.15 10.13 14.35 31.86"/><line class="a3fe64d5-76f6-4e51-8045-7c1dc4f50032" x1="38.88" y1="5.22" x2="12.07" y2="5.14"/><path class="ee20685e-6eb2-4ede-a73c-024724e33497" d="M42.58,10.27h4v21.3h-4Zm1.83,9.17h6.81a2.4,2.4,0,0,0,1.27-.33,2.28,2.28,0,0,0,.86-.93,3,3,0,0,0,.31-1.38,3.16,3.16,0,0,0-.3-1.4,2.25,2.25,0,0,0-.85-.93,2.48,2.48,0,0,0-1.29-.33H44.41V10.27h6.71a7.33,7.33,0,0,1,3.51.81A5.85,5.85,0,0,1,57,13.38a6.77,6.77,0,0,1,.84,3.42A6.77,6.77,0,0,1,57,20.22a5.74,5.74,0,0,1-2.35,2.28,7.33,7.33,0,0,1-3.51.81H44.41Z" transform="translate(-1.96 -4.89)"/><path class="ee20685e-6eb2-4ede-a73c-024724e33497" d="M62.41,31A5.47,5.47,0,0,1,60,28.66,7.66,7.66,0,0,1,59.21,25V23.26A8.72,8.72,0,0,1,60,19.41,5.5,5.5,0,0,1,62.28,17a7.31,7.31,0,0,1,3.62-.84,5.85,5.85,0,0,1,3.42,1A6.22,6.22,0,0,1,71.48,20a12.71,12.71,0,0,1,.74,4.58v1H61.82V22.9h6.73l0-.35a3.54,3.54,0,0,0-.83-2,2.31,2.31,0,0,0-1.78-.72,2.92,2.92,0,0,0-2.25.87,3.46,3.46,0,0,0-.79,2.44V25a3.21,3.21,0,0,0,.87,2.4,3.37,3.37,0,0,0,2.44.85A4.65,4.65,0,0,0,67.76,28a4.86,4.86,0,0,0,1.44-.81l2.62,2.33a8.86,8.86,0,0,1-2.67,1.68,8,8,0,0,1-3,.59A8.19,8.19,0,0,1,62.41,31Z" transform="translate(-1.96 -4.89)"/><path class="ee20685e-6eb2-4ede-a73c-024724e33497" d="M74.56,16.36H82v3.43H74.56Zm2.5,14.26a4.31,4.31,0,0,1-.93-3V11.94h4V26.62a1.42,1.42,0,0,0,.22.86.75.75,0,0,0,.64.3h1v3.86H80A3.77,3.77,0,0,1,77.06,30.62Z" transform="translate(-1.96 -4.89)"/><path class="ee20685e-6eb2-4ede-a73c-024724e33497" d="M85.52,16.36h4.3V31.57h-4.3Zm7.83,3.8a2.93,2.93,0,0,0-1-.15,2.31,2.31,0,0,0-1.88.79A3.2,3.2,0,0,0,89.82,23L89.52,19a5.39,5.39,0,0,1,1.63-2.12,3.6,3.6,0,0,1,2.2-.76,4.76,4.76,0,0,1,1.73.3,4,4,0,0,1,1.34.89L94.07,20.6A1.75,1.75,0,0,0,93.35,20.16Z" transform="translate(-1.96 -4.89)"/><path class="ee20685e-6eb2-4ede-a73c-024724e33497" d="M98.1,10.27h4v4h-4Zm0,6.09h4V31.57h-4Z" transform="translate(-1.96 -4.89)"/><path class="ee20685e-6eb2-4ede-a73c-024724e33497" d="M116.92,19.76l-6.72,8.16h7.12v3.65H105.41V28.11l6.91-8.1h-6.71V16.36h11.31Z" transform="translate(-1.96 -4.89)"/><path class="ee20685e-6eb2-4ede-a73c-024724e33497" d="M123.45,31a5.47,5.47,0,0,1-2.38-2.33,7.66,7.66,0,0,1-.82-3.68V23.26a8.72,8.72,0,0,1,.78-3.85A5.5,5.5,0,0,1,123.32,17a7.31,7.31,0,0,1,3.62-.84,5.85,5.85,0,0,1,3.42,1A6.22,6.22,0,0,1,132.52,20a12.71,12.71,0,0,1,.74,4.58v1h-10.4V22.9h6.73l0-.35a3.54,3.54,0,0,0-.83-2,2.31,2.31,0,0,0-1.78-.72,2.92,2.92,0,0,0-2.25.87,3.46,3.46,0,0,0-.79,2.44V25a3.21,3.21,0,0,0,.87,2.4,3.37,3.37,0,0,0,2.44.85A4.65,4.65,0,0,0,128.8,28a4.86,4.86,0,0,0,1.44-.81l2.62,2.33a8.86,8.86,0,0,1-2.67,1.68,8,8,0,0,1-3,.59A8.19,8.19,0,0,1,123.45,31Z" transform="translate(-1.96 -4.89)"/><path class="ee20685e-6eb2-4ede-a73c-024724e33497" d="M136.77,16.36h4.31V31.57h-4.31Zm7.84,3.8a2.93,2.93,0,0,0-1-.15,2.34,2.34,0,0,0-1.89.79,3.25,3.25,0,0,0-.66,2.17L140.77,19a5.39,5.39,0,0,1,1.63-2.12,3.63,3.63,0,0,1,2.21-.76,4.7,4.7,0,0,1,1.72.3,3.93,3.93,0,0,1,1.34.89l-2.34,3.27A1.89,1.89,0,0,0,144.61,20.16Z" transform="translate(-1.96 -4.89)"/></svg>