<?xml version="1.0" encoding="UTF-8" standalone="no"?>
<svg
   id="svg9"
   viewBox="0 0 510.46 518.28"
   version="1.1"
   sodipodi:docname="logo_full_1.svg"
   inkscape:version="1.2.2 (732a01da63, 2022-12-09)"
   xmlns:inkscape="http://www.inkscape.org/namespaces/inkscape"
   xmlns:sodipodi="http://sodipodi.sourceforge.net/DTD/sodipodi-0.dtd"
   xmlns="http://www.w3.org/2000/svg"
   xmlns:svg="http://www.w3.org/2000/svg">
  <sodipodi:namedview
     id="namedview15"
     pagecolor="#ffffff"
     bordercolor="#000000"
     borderopacity="0.25"
     inkscape:showpageshadow="2"
     inkscape:pageopacity="0.0"
     inkscape:pagecheckerboard="0"
     inkscape:deskcolor="#d1d1d1"
     showgrid="false"
     inkscape:zoom="1.5705795"
     inkscape:cx="257.8666"
     inkscape:cy="259.45837"
     inkscape:window-width="1920"
     inkscape:window-height="1001"
     inkscape:window-x="-9"
     inkscape:window-y="-9"
     inkscape:window-maximized="1"
     inkscape:current-layer="svg9" />
  <defs
     id="defs4">
    <style
       id="style2">
      .cls-1 {
        fill: none;
        stroke-width: 3.52px;
      }

      .cls-1, .cls-2 {
        stroke-linejoin: round;
      }

      .cls-1, .cls-2, .cls-3 {
        stroke-linecap: round;
      }

      .cls-1, .cls-3 {
        stroke: #ae9c86;
      }

      .cls-2 {
        fill: #192436;
        stroke: #e8e2e2;
        stroke-width: 1.72px;
      }

      .cls-3 {
        fill: #ff0;
        stroke-miterlimit: 3.5;
        stroke-width: 3.5px;
      }
    </style>
  </defs>
  <g
     id="layer3">
    <rect
       id="rect1769"
       class="cls-2"
       x=".86"
       y=".86"
       width="508.74"
       height="516.57" />
  </g>
  <g
     id="g15">
    <path
       id="path2561"
       class="cls-3"
       d="M34.78,234.53l186.19,.3" />
    <path
       id="path2561-2"
       class="cls-3"
       d="M286.61,234.89l186.19,.3" />
    <g
       id="layer1">
      <path
         id="path4095-9"
         class="cls-1"
         d="M253.69,214.98l-6.02,13.56-10.9-6.4,3.28,18.75,13.49-.15" />
      <path
         id="path4095-3-2"
         class="cls-1"
         d="M253.9,214.98l6.02,13.56,10.9-6.4-3.28,18.75-13.49-.15" />
    </g>
  </g>
  <g
     aria-label="HOTEL OLIMP"
     id="text487"
     style="font-size:59.3336px;font-family:LTCRecordTitleW00-Regular;-inkscape-font-specification:'LTCRecordTitleW00-Regular, Normal';text-align:center;text-anchor:middle;fill:#e9e2e2;stroke-width:1.5;stroke-linecap:round;stroke-linejoin:round;stroke-miterlimit:0"
     transform="translate(-3.3623483,-8.61162)">
    <path
       d="m 91.44955,261.23363 q 0.65267,0 1.008671,0 0.356002,0 0.771337,0.0593 0.474669,0.0593 0.593336,0.178 0.118667,0.11867 0.118667,0.41534 0,0.47467 -0.83067,0.65267 -0.65267,0.0593 -1.305339,0.356 -0.593336,0.23733 -1.068005,0.59333 -0.830671,0.65267 -1.127339,1.83935 -0.237334,1.12733 -0.296668,3.91601 l -0.118667,11.62939 q 0,2.19534 -0.05933,4.33135 0,2.07668 -0.05933,3.73802 0,1.66134 0,2.72934 0,1.00867 0,1.06801 l 0.05933,7.00136 q 0.05933,3.02602 0.178,4.21269 0.118668,1.18667 0.593336,1.72067 0.534003,0.65267 2.195344,0.94934 1.186671,0.178 1.483339,0.356 0.356002,0.178 0.356002,0.59334 0,0.65267 -1.008671,0.65267 l -1.068005,-0.0593 q -0.83067,0 -1.542673,-0.0593 -0.65267,0 -1.364673,0 -0.712003,-0.0593 -1.186672,-0.0593 h -1.60201 q -0.237335,0 -0.830671,0.0593 -0.534002,0 -1.246005,0 -0.712004,0 -1.424007,0.0593 -0.652669,0 -1.068005,0 H 80.2355 q -0.593336,0 -0.593336,-0.534 0,-0.47467 0.593336,-0.65267 l 1.186672,-0.23733 q 0.652669,-0.11867 1.305339,-0.71201 0.712003,-0.59333 1.008671,-1.36467 0.415335,-1.068 0.474669,-2.49201 0.05933,-0.94934 0.118667,-2.13601 0.05933,-1.00867 0.05933,-2.43268 0,-1.424 0.05933,-3.14468 l 0.05933,-8.90004 q 0,-0.59333 -0.593336,-0.59333 H 59.943409 q -0.178001,0 -0.593336,0 -0.356002,0 -0.771337,0.0593 -0.415335,0 -0.771337,0 -0.356001,0 -0.474669,0 -0.474668,0 -0.652669,0.11867 -0.118667,0.0593 -0.118667,0.47467 v 9.67137 l 0.178,5.45869 q 0.05933,1.54268 0.118668,2.43268 0.05933,0.89001 0.178,1.42401 0.118668,0.534 0.296668,0.83067 0.237335,0.23733 0.593336,0.534 0.415336,0.29667 1.127339,0.59334 0.771337,0.29666 1.720674,0.41533 1.068005,0.178 1.068005,0.65267 0,0.356 -0.296668,0.47467 -0.178001,0.0593 -0.296668,0.0593 -1.424006,0 -2.848013,-0.0593 -1.186672,0 -2.551345,0 -1.364672,-0.0593 -2.432677,-0.0593 -1.008671,0 -1.780008,0.0593 -0.771337,0 -1.246006,0 -0.593336,0.0593 -1.008671,0.0593 -0.415335,0.0593 -0.712003,0.0593 h -1.127338 q -0.474669,0 -0.474669,-0.59334 0,-0.47467 0.474669,-0.65267 l 0.949337,-0.356 q 0.65267,-0.178 1.424007,-0.77134 0.83067,-0.65267 1.186672,-1.246 0.712003,-1.12734 0.712003,-4.33135 v -3.56002 q 0,-1.36467 0,-2.55135 0.05933,-1.18667 0.05933,-1.36467 v -17.91875 q 0,-2.136 0,-3.61934 0,-1.54268 -0.05933,-2.55135 0,-1.068 -0.05933,-1.72067 0,-0.71201 -0.05933,-1.24601 -0.118668,-1.18667 -0.65267,-2.01734 -0.474669,-0.89001 -1.424006,-1.18667 -0.178001,-0.0593 -0.474669,-0.0593 -0.296668,-0.0593 -0.593336,-0.11866 -0.356002,-0.0593 -0.771337,-0.0593 -0.534002,-0.0593 -0.534002,-0.47467 0,-0.356 0.118667,-0.47467 0.178001,-0.11866 0.712003,-0.11866 h 1.542674 q 1.008671,0 2.017342,0.0593 1.068005,0 2.076676,0 1.305339,0 2.670012,0 1.424006,-0.0593 3.322681,-0.0593 h 1.008672 q 0.890004,0 0.890004,0.59333 0,0.59334 -1.364673,0.77134 -0.830671,0.11867 -1.542674,0.534 -0.712003,0.356 -1.186672,0.94934 -0.296668,0.41533 -0.474669,0.89 -0.178,0.41534 -0.296668,1.18668 -0.118667,0.77133 -0.178,1.89867 0,1.12734 0,2.84801 l 0.05933,10.68005 q 0,0.712 0.415335,0.712 h 26.818787 q 0.771337,0 0.771337,-1.12733 -0.05933,-1.72068 -0.05933,-3.20402 -0.05933,-1.246 -0.05933,-2.43268 0,-1.18667 0,-1.66134 v -5.69602 q 0,-1.72068 -0.415335,-3.02602 -0.415336,-1.36467 -1.186672,-1.958 -0.415336,-0.41534 -1.720675,-0.59334 l -1.542673,-0.23733 q -0.415335,-0.11867 -0.415335,-0.53401 0,-0.65267 0.949337,-0.65267 l 3.322682,0.11867 q 1.246005,0.0593 2.31401,0.0593 1.127338,0 1.246006,0 1.839341,0 2.788679,-0.0593 1.008671,-0.0593 1.602007,-0.0593 z"
       id="path543" />
    <path
       d="m 122.95573,306.86116 q 4.15335,0 7.4167,-1.36467 3.32268,-1.424 5.57736,-4.03468 2.31401,-2.61068 3.50068,-6.3487 1.246,-3.73801 1.246,-8.42537 0,-5.63669 -1.89867,-10.32405 -1.89868,-4.74668 -5.57736,-8.24737 -2.72935,-2.55134 -5.63669,-3.67868 -2.90735,-1.12734 -6.94203,-1.12734 -3.50069,0 -5.93336,0.77134 -2.43268,0.77134 -4.80602,2.61068 -3.56002,2.72934 -5.22136,6.34869 -1.66134,3.61935 -1.66134,8.66271 0,5.10269 1.60201,9.67138 1.602,4.56868 4.33135,8.01003 2.72934,3.44135 6.34869,5.45869 3.61935,2.01734 7.65404,2.01734 z m -0.0593,2.07668 q -4.50935,0 -8.3067,-1.18667 -3.79735,-1.18667 -6.11136,-2.72935 -4.80602,-3.20401 -7.47603,-8.8407 -2.610682,-5.69603 -2.610682,-12.81606 0,-4.86536 1.720672,-8.95937 1.72068,-4.15336 4.74669,-7.17937 3.08535,-3.02601 7.2387,-4.68735 4.21268,-1.72068 9.13737,-1.72068 4.09402,0 7.71337,0.94934 3.61935,0.89 6.40803,2.61068 2.37334,1.48334 4.27202,3.67868 1.95801,2.19534 3.32268,4.86536 1.36467,2.67001 2.07668,5.75536 0.712,3.02601 0.712,6.28936 0,1.424 -0.178,2.90734 -0.11867,1.48334 -0.41534,3.08535 -0.65267,3.61935 -1.89867,6.23003 -1.24601,2.61068 -3.44135,4.98402 -3.20401,3.38202 -7.29803,5.04336 -4.03469,1.602 -9.07804,1.72067 z"
       id="path545" />
    <path
       d="m 148.40986,262.00496 q 0.11866,-0.59333 0.23733,-0.712 0.11867,-0.11867 0.47467,-0.11867 4.80602,0.11867 8.6627,0.178 1.66135,0 3.20402,0.0593 1.60201,0 2.90735,0.0593 1.30533,0 2.136,0 0.83068,0 1.00868,0 h 15.30806 l 3.14469,-0.178 q 0.65267,0 0.83067,0.29667 0.178,0.23733 0.178,1.12734 0,0.356 -0.0593,0.65267 0,0.29666 -0.0593,0.59333 l -1.06801,4.50936 q -0.11866,0.59333 -0.65266,0.59333 -0.47467,0 -0.47467,-0.534 0,-0.29667 0.0593,-0.59334 0.0593,-0.356 0.0593,-0.77133 0,-1.00867 -0.178,-1.30534 -0.11866,-0.356 -0.65267,-0.65267 -0.83067,-0.47467 -2.49201,-0.65267 -1.60201,-0.178 -4.50935,-0.178 -1.54268,0 -2.96668,0.0593 -1.36467,0 -2.37335,0.11867 l -1.30533,0.11867 q -0.71201,0.0593 -0.77134,0.59333 -0.0593,0.356 -0.0593,0.65267 v 0.94934 35.89683 q 0,1.72067 0.89001,2.61067 0.89,0.83068 3.02601,1.24601 l 1.24601,0.23733 q 0.29667,0.11867 0.65267,0.17801 0.356,0.0593 0.356,0.534 0,0.65267 -0.77134,0.65267 h -1.18667 l -13.40939,-0.0593 q -0.23734,0 -0.65267,0 -0.356,0.0593 -0.59334,0.0593 -0.47467,0 -0.47467,-0.65267 0,-0.29667 0.29667,-0.47467 0.11867,-0.0593 0.59334,-0.178 0.23733,-0.0593 0.47467,-0.0593 l 2.07667,-0.41533 q 0.83067,-0.178 1.42401,-0.712 0.65267,-0.53401 0.89,-1.18668 0.29667,-0.77133 0.356,-2.72934 0.11867,-1.95801 0.11867,-5.69603 l 0.11867,-29.78546 q 0,-0.71201 -0.11867,-1.12734 -0.0593,-0.41534 -0.41533,-0.59334 -0.35601,-0.23733 -1.06801,-0.29667 -0.65267,-0.0593 -1.83934,-0.0593 -0.89,0 -1.89868,0 -1.00867,0 -2.19534,0.0593 -2.43268,0.11867 -3.73802,0.29667 -1.246,0.178 -2.13601,0.534 -1.83934,0.71201 -3.20401,3.73802 -0.11867,0.29667 -0.23733,0.41534 -0.11867,0.0593 -0.29667,0.0593 -0.534,0 -0.534,-0.356 0,-0.11867 0.11866,-0.47467 l 0.534,-1.78001 0.53401,-2.67001 z"
       id="path547" />
    <path
       d="m 201.39474,263.96297 q -0.65267,0.0593 -0.89,0.178 -0.23734,0.11867 -0.23734,0.53401 l -0.0593,1.72067 v 13.88406 1.48334 q 0,0.47467 0.0593,0.59334 0.11867,0.0593 0.47467,0.0593 h 8.95938 q 1.246,0 2.01734,-0.0593 0.83067,-0.11867 1.30534,-0.356 0.47467,-0.29667 0.712,-0.77134 0.29667,-0.534 0.41534,-1.30534 0.11866,-0.712 0.29666,-0.94934 0.178,-0.29666 0.47467,-0.29666 0.47467,0 0.47467,0.65266 l -0.178,2.01735 v 3.26335 l 0.356,4.21268 v 0.89 q 0,0.47467 -0.41533,0.47467 -0.29667,0 -0.47467,-0.29666 -0.178,-0.35601 -0.29667,-1.36468 -0.29667,-1.72067 -1.18667,-2.43267 -0.83067,-0.77134 -2.55135,-0.83068 -0.65267,-0.0593 -1.54267,-0.0593 -0.77134,0 -1.83934,0 -1.06801,0 -2.37335,-0.0593 -0.41533,0 -1.068,0.0593 -0.65267,0 -1.30534,0.0593 -0.77134,0.0593 -1.66134,0.0593 h -0.41534 q -0.178,0.11867 -0.178,0.41533 l 0.23734,14.2994 q 0,1.78001 0.11866,2.90735 0.17801,1.068 0.47467,1.72067 0.35601,0.59334 0.94934,0.83067 0.65267,0.178 1.66134,0.23734 1.06801,0.0593 1.72068,0.11866 0.65267,0 0.94933,0.0593 0.35601,0 0.47467,0 0.178,0 0.29667,0 1.24601,0 2.55135,-0.0593 1.30533,-0.0593 2.43267,-0.178 1.12734,-0.11866 2.01735,-0.23733 0.89,-0.11867 1.246,-0.29667 0.77134,-0.29667 1.66134,-1.00867 0.89001,-0.712 1.36467,-1.36467 0.29667,-0.47467 0.53401,-1.00867 0.29667,-0.59334 0.59333,-1.48334 0.11867,-0.59334 0.53401,-0.59334 0.534,0 0.534,0.534 0,0.41534 -0.23734,1.48334 -0.178,1.00867 -0.47467,2.01734 l -0.712,2.55135 q -0.29667,1.246 -0.59333,1.60201 -0.29667,0.29666 -1.12734,0.29666 h -1.06801 q -0.77133,0 -3.20401,-0.0593 -2.37335,-0.0593 -6.46736,-0.0593 -5.51803,0 -9.25605,0.0593 -3.67868,0.0593 -4.86535,0.11867 l -1.12734,0.0593 q -0.47467,0 -0.47467,-0.41533 0,-0.29667 0.23734,-0.41534 0.23733,-0.178 1.12733,-0.356 0.53401,-0.11867 1.24601,-0.41534 0.712,-0.356 1.12734,-0.65267 0.47467,-0.356 0.65267,-0.94933 0.23733,-0.65267 0.29667,-2.01735 l 0.0593,-2.78867 v -19.75809 q 0,-3.32268 -0.0593,-6.05203 0,-1.12734 -0.0593,-2.25468 0,-1.18667 -0.0593,-2.07667 0,-0.94934 0,-1.54268 0,-0.65267 0,-0.77133 -0.11867,-1.60201 -0.23734,-2.67002 -0.11866,-1.068 -0.59333,-1.72067 -0.534,-0.77134 -1.83934,-0.83067 l -1.42401,-0.11867 q -0.59334,-0.11866 -0.59334,-0.59333 0,-0.59334 0.94934,-0.59334 l 6.1707,0.11867 q 1.12733,0 2.25467,0.0593 1.12734,0 2.01735,0.0593 0.89,0 1.48334,0 0.59333,0 0.65267,0 5.16202,-0.11867 7.9507,-0.17801 2.84801,-0.0593 4.15335,-0.0593 1.36467,-0.0593 1.60201,-0.0593 0.23733,0 0.29666,0 0.35601,0 0.53401,0.29667 0.23733,0.29666 0.23733,0.712 v 0.47467 q -0.0593,0.29666 -0.0593,0.65267 0,0.29666 0,0.65267 0,0.94933 0.0593,1.89867 0.0593,0.94934 0.178,1.78001 0.0593,0.29667 0.0593,0.534 0.0593,0.178 0.0593,0.356 0,0.94934 -0.59334,0.94934 -0.41533,0 -0.65267,-0.65267 l -0.356,-1.12734 q -0.356,-1.12734 -0.89,-1.89867 -0.47467,-0.77134 -1.24601,-1.18667 -0.77133,-0.47467 -1.89867,-0.65267 -1.12734,-0.178 -2.72935,-0.178 h -7.4167 z"
       id="path549" />
    <path
       d="m 237.52893,261.35229 q 0.59334,0 0.59334,0.53401 0,0.59333 -1.48334,0.712 -0.534,0.0593 -1.18667,0.178 -0.65267,0.11867 -1.00867,0.41534 -0.47467,0.356 -0.77134,0.89 -0.23733,0.47467 -0.29667,2.31401 -0.0593,1.95801 -0.11867,3.50068 -0.0593,1.36468 -0.11866,2.55135 0,1.12734 0,1.246 l 0.0593,21.8941 q 0,3.50068 0.11867,5.39936 0.11867,1.83934 0.356,2.96668 0.23733,1.12734 0.94934,1.54267 0.77133,0.356 2.84801,0.356 l 4.21269,-0.0593 q 2.49201,-0.0593 4.27201,-0.29667 1.78001,-0.29667 3.02602,-0.89 1.246,-0.59334 2.07667,-1.54268 0.83067,-1.00867 1.36468,-2.49201 0.356,-0.83067 0.83067,-0.83067 0.534,0 0.534,0.47467 0,0.29667 -0.178,1.06801 l -1.66134,5.99269 q -0.29667,0.89 -1.00867,0.89 h -26.16612 q -0.65267,0 -0.65267,-0.41533 0,-0.356 0.178,-0.47467 0.178,-0.11867 0.83067,-0.23733 0.59334,-0.11867 1.36467,-0.35601 0.77134,-0.29666 1.24601,-0.59333 0.59334,-0.29667 0.712,-0.83067 0.178,-0.59334 0.29667,-1.72068 l 0.11867,-2.13601 v -28.24279 q 0,-2.84801 -0.11867,-4.86535 -0.0593,-2.07668 -0.23733,-3.20402 -0.178,-1.18667 -0.65267,-1.66134 -0.47467,-0.47467 -1.60201,-0.59334 -0.65267,-0.11866 -1.068,-0.11866 -0.35601,-0.0593 -0.47467,-0.11867 -0.71201,-0.0593 -0.71201,-0.65267 0,-0.534 0.59334,-0.534 l 6.40803,0.11867 z"
       id="path551" />
    <path
       d="m 304.21989,306.86116 q 4.15335,0 7.4167,-1.36467 3.32268,-1.424 5.57736,-4.03468 2.31401,-2.61068 3.50068,-6.3487 1.246,-3.73801 1.246,-8.42537 0,-5.63669 -1.89867,-10.32405 -1.89868,-4.74668 -5.57736,-8.24737 -2.72935,-2.55134 -5.63669,-3.67868 -2.90735,-1.12734 -6.94203,-1.12734 -3.50068,0 -5.93336,0.77134 -2.43268,0.77134 -4.80602,2.61068 -3.56002,2.72934 -5.22136,6.34869 -1.66134,3.61935 -1.66134,8.66271 0,5.10269 1.60201,9.67138 1.602,4.56868 4.33135,8.01003 2.72934,3.44135 6.34869,5.45869 3.61935,2.01734 7.65404,2.01734 z m -0.0593,2.07668 q -4.50935,0 -8.3067,-1.18667 -3.79735,-1.18667 -6.11136,-2.72935 -4.80602,-3.20401 -7.47603,-8.8407 -2.61068,-5.69603 -2.61068,-12.81606 0,-4.86536 1.72067,-8.95937 1.72068,-4.15336 4.74669,-7.17937 3.08535,-3.02601 7.2387,-4.68735 4.21268,-1.72068 9.13737,-1.72068 4.09402,0 7.71337,0.94934 3.61935,0.89 6.40803,2.61068 2.37334,1.48334 4.27202,3.67868 1.95801,2.19534 3.32268,4.86536 1.36467,2.67001 2.07668,5.75536 0.712,3.02601 0.712,6.28936 0,1.424 -0.178,2.90734 -0.11867,1.48334 -0.41534,3.08535 -0.65267,3.61935 -1.89867,6.23003 -1.24601,2.61068 -3.44135,4.98402 -3.20401,3.38202 -7.29803,5.04336 -4.03469,1.602 -9.07804,1.72067 z"
       id="path553" />
    <path
       d="m 344.44809,261.35229 q 0.59334,0 0.59334,0.53401 0,0.59333 -1.48334,0.712 -0.534,0.0593 -1.18667,0.178 -0.65267,0.11867 -1.00867,0.41534 -0.47467,0.356 -0.77134,0.89 -0.23734,0.47467 -0.29667,2.31401 -0.0593,1.95801 -0.11867,3.50068 -0.0593,1.36468 -0.11866,2.55135 0,1.12734 0,1.246 l 0.0593,21.8941 q 0,3.50068 0.11867,5.39936 0.11866,1.83934 0.356,2.96668 0.23733,1.12734 0.94934,1.54267 0.77133,0.356 2.84801,0.356 l 4.21268,-0.0593 q 2.49202,-0.0593 4.27202,-0.29667 1.78001,-0.29667 3.02602,-0.89 1.246,-0.59334 2.07667,-1.54268 0.83067,-1.00867 1.36468,-2.49201 0.356,-0.83067 0.83067,-0.83067 0.534,0 0.534,0.47467 0,0.29667 -0.178,1.06801 l -1.66134,5.99269 q -0.29667,0.89 -1.00867,0.89 h -26.16612 q -0.65267,0 -0.65267,-0.41533 0,-0.356 0.178,-0.47467 0.178,-0.11867 0.83067,-0.23733 0.59334,-0.11867 1.36467,-0.35601 0.77134,-0.29666 1.24601,-0.59333 0.59333,-0.29667 0.712,-0.83067 0.178,-0.59334 0.29667,-1.72068 l 0.11867,-2.13601 v -28.24279 q 0,-2.84801 -0.11867,-4.86535 -0.0593,-2.07668 -0.23733,-3.20402 -0.17801,-1.18667 -0.65267,-1.66134 -0.47467,-0.47467 -1.60201,-0.59334 -0.65267,-0.11866 -1.06801,-0.11866 -0.356,-0.0593 -0.47466,-0.11867 -0.71201,-0.0593 -0.71201,-0.65267 0,-0.534 0.59334,-0.534 l 6.40803,0.11867 z"
       id="path555" />
    <path
       d="m 375.12355,300.7498 q 0,1.30534 0.0593,2.19535 0.0593,0.83067 0.178,1.424 0.17801,0.53401 0.35601,0.89001 0.23733,0.356 0.59333,0.65267 0.83067,0.65267 2.84802,1.00867 1.068,0.178 1.068,0.712 0,0.59334 -0.59334,0.59334 l -1.00867,-0.0593 q -1.12734,-0.0593 -2.84801,-0.11866 -1.66134,-0.0593 -3.91602,-0.0593 -1.602,0 -2.78868,0.0593 -1.18667,0.0593 -2.01734,0.11866 l -0.83067,0.0593 q -0.59334,0 -0.59334,-0.59334 0,-0.29667 0.23734,-0.47467 0.29667,-0.23733 1.18667,-0.47467 1.89868,-0.59333 2.61068,-2.07667 0.23733,-0.534 0.356,-1.06801 0.178,-0.534 0.23734,-1.72067 0.0593,-1.18667 0.0593,-3.26335 0.0593,-2.13601 0.0593,-5.81469 l 0.0593,-23.91144 q 0,-1.66134 -0.178,-3.02602 -0.29667,-2.61067 -2.01735,-3.08534 -0.178,-0.0593 -0.534,-0.11867 -0.29667,-0.0593 -0.59334,-0.11867 -0.356,-0.0593 -0.77133,-0.11866 -0.534,-0.0593 -0.534,-0.47467 0,-0.65267 0.94933,-0.65267 0.89001,0 2.07668,0.0593 1.18667,0.0593 2.19534,0.0593 h 2.25468 q 2.07667,0 3.44135,0 1.424,0 2.78868,-0.11866 0.59333,0 0.59333,0.47467 0,0.65267 -1.30534,0.89 -1.89867,0.47467 -2.72934,1.54267 -0.41534,0.53401 -0.65267,1.48334 -0.23734,1.18668 -0.356,4.21269 -0.11867,2.96668 -0.11867,6.7047 v 15.84207 z"
       id="path557" />
    <path
       d="m 426.15043,275.11769 q -0.11867,-0.59334 -0.356,-0.59334 -0.23734,0 -0.35601,0.29667 l -0.94933,1.95801 q -1.54268,3.14468 -3.08535,6.76403 -1.48334,3.56002 -3.20401,7.71337 -2.49202,6.11136 -4.15336,10.02738 -1.602,3.91601 -2.49201,5.69602 l -0.65267,1.30534 q -0.23733,0.47467 -0.534,0.47467 -0.41533,0 -0.65267,-0.534 l -0.89,-1.89868 q -1.24601,-2.67001 -2.96668,-6.58603 -1.72068,-3.97535 -3.91602,-9.37471 -2.01734,-4.98402 -3.61935,-8.60337 -1.54267,-3.61935 -2.78868,-6.05202 l -0.83067,-1.60201 q -0.29667,-0.41534 -0.41533,-0.41534 -0.23734,0 -0.35601,0.23734 l -0.178,1.12734 -2.07667,25.51344 -0.0593,2.49201 q 0,0.89001 0.0593,1.36468 0.0593,0.41533 0.356,0.89 0.178,0.29667 0.41533,0.534 0.29667,0.178 0.71201,0.35601 0.47467,0.178 1.18667,0.356 0.712,0.11866 1.83934,0.29666 0.83067,0.0593 0.83067,0.65267 0,0.65267 -1.00867,0.65267 l -2.37334,-0.0593 q -1.00868,-0.0593 -2.31401,-0.0593 -1.24601,0 -2.13601,0 -0.94934,0 -1.72068,0 -0.712,0 -1.30534,0.0593 l -1.00867,0.0593 q -0.65267,0 -0.65267,-0.47466 0,-0.47467 1.06801,-0.71201 1.36467,-0.29667 2.01734,-0.94934 0.65267,-0.712 0.89,-2.07667 l 0.356,-2.31401 q 0,-0.11867 0.0593,-0.65267 0.0593,-0.534 0.11866,-1.36467 0.11867,-0.83067 0.23734,-1.83935 0.11867,-1.00867 0.23733,-2.07667 0.23734,-2.43268 0.53401,-5.45869 l 1.66134,-18.69009 q 0.29666,-3.32268 0.41533,-5.04335 0.11867,-1.78001 0.11867,-2.96668 v -0.53401 q 0,-1.36467 0.178,-1.89867 0.23733,-0.59334 0.712,-0.59334 0.59334,0 1.18668,1.48334 l 3.44134,8.60338 q 0.178,0.47466 0.83067,2.01734 0.71201,1.54267 1.60201,3.67868 0.94934,2.13601 2.07668,4.74669 1.18667,2.61068 2.37334,5.22136 2.72935,6.17069 6.11136,13.64672 0.11867,0.41534 0.356,0.41534 0.178,0 0.41534,-0.41534 l 1.66134,-3.91601 q 1.00867,-2.31401 2.61068,-5.9927 1.66134,-3.73801 3.91602,-8.90004 2.67001,-5.99269 4.62802,-10.62071 1.95801,-4.62802 3.26334,-8.01004 l 0.41534,-1.068 q 0.356,-0.83067 0.83067,-0.83067 0.65267,0 0.77134,1.12734 l 0.47467,8.06937 q 0.0593,1.602 0.178,2.90734 0.11866,1.12734 0.11866,2.19534 0.0593,1.00868 0.11867,1.24601 l 1.36467,23.73344 q 0.178,3.50068 1.00867,4.98402 0.89001,1.48334 2.90735,1.78001 1.48334,0.178 1.48334,0.89 0,0.65267 -1.246,0.65267 h -0.23734 -2.61068 q -1.00867,0 -1.95801,0 -0.89,-0.0593 -1.00867,-0.0593 -0.178,0 -0.89,0.0593 -0.65267,0 -1.36467,0 -0.89001,0.0593 -1.89868,0.0593 -0.11867,0 -0.47467,0 -0.29667,0 -0.65267,0 -0.356,0.0593 -0.65267,0.0593 -0.29667,0 -0.29667,0 -0.65266,0 -0.65266,-0.59333 0,-0.41534 0.83067,-0.77134 1.66134,-0.59334 2.55134,-1.66134 0.89,-1.12734 0.89,-2.55135 0,-0.47467 -0.0593,-1.18667 0,-0.77134 -0.0593,-1.83934 l -0.23734,-4.62802 z"
       id="path559" />
    <path
       d="m 441.63643,308.1665 q -0.83067,0 -0.83067,-0.47466 0,-0.41534 0.712,-0.59334 1.72068,-0.534 2.43268,-1.00867 0.77134,-0.47467 1.12734,-1.30534 0.41533,-1.06801 0.534,-2.37335 0.11867,-1.54267 0.178,-4.45002 0.11867,-2.96668 0.11867,-6.17069 l 0.11867,-23.37744 q -0.0593,-0.77133 -0.0593,-1.424 -0.0593,-0.59334 -0.0593,-1.12734 0,-0.59334 -0.0593,-0.89001 -0.11866,-1.00867 -0.534,-1.54267 -0.41533,-0.59334 -1.30534,-0.83067 l -1.66134,-0.23733 q -0.77133,-0.17801 -0.77133,-0.65267 0,-0.53401 0.59333,-0.53401 l 13.64673,0.23734 q 1.36467,0.0593 2.55134,0.11867 1.18668,0.0593 2.19535,0.23733 2.13601,0.29667 4.03468,1.30534 1.95801,1.00867 3.14468,2.49201 1.18667,1.36467 1.78001,3.20401 0.59334,1.83935 0.59334,3.85669 0,2.96668 -1.00867,5.45869 -1.00868,2.43268 -2.84802,4.21268 -1.78001,1.72068 -4.33135,2.72935 -2.49201,0.94934 -5.51802,0.94934 -0.65267,0 -1.18668,0 -0.534,-0.0593 -0.94933,-0.11867 l -1.30534,-0.29667 q -0.47467,0 -0.47467,-0.41533 0,-0.534 1.18667,-0.65267 5.57736,-0.41534 8.66271,-3.02602 3.08534,-2.67001 3.08534,-7.06069 0,-3.08535 -1.18667,-5.34003 -1.12734,-2.31401 -3.26335,-3.50068 -2.96668,-1.60201 -8.36604,-1.60201 -1.12733,0 -1.54267,0.178 -0.356,0.178 -0.356,0.65267 l -0.0593,1.89868 q -0.178,5.34002 -0.23734,10.97671 -0.0593,5.57736 -0.0593,10.91739 0,2.84801 0.0593,5.45869 0.0593,2.61068 0.0593,5.04335 v 3.14468 q 0,1.83935 0.712,2.78868 0.77134,0.94934 2.43268,1.48334 0.712,0.23734 1.18667,0.356 0.47467,0.0593 1.18667,0.17801 0.47467,0.0593 0.47467,0.59333 0,0.47467 -0.77134,0.534 h -0.83067 z"
       id="path561" />
  </g>
</svg>
