<?xml version="1.0" encoding="UTF-8" standalone="no"?>
<svg
   id="svg9"
   viewBox="0 0 500.00001 119.99999"
   version="1.1"
   sodipodi:docname="logo.svg"
   inkscape:version="1.2.2 (732a01da63, 2022-12-09)"
   width="500"
   height="120"
   xmlns:inkscape="http://www.inkscape.org/namespaces/inkscape"
   xmlns:sodipodi="http://sodipodi.sourceforge.net/DTD/sodipodi-0.dtd"
   xmlns="http://www.w3.org/2000/svg"
   xmlns:svg="http://www.w3.org/2000/svg">
  <sodipodi:namedview
     id="namedview15"
     pagecolor="#ffffff"
     bordercolor="#000000"
     borderopacity="0.25"
     inkscape:showpageshadow="2"
     inkscape:pageopacity="0.0"
     inkscape:pagecheckerboard="0"
     inkscape:deskcolor="#d1d1d1"
     showgrid="false"
     inkscape:zoom="1.5705795"
     inkscape:cx="262.0052"
     inkscape:cy="171.59271"
     inkscape:window-width="1920"
     inkscape:window-height="1001"
     inkscape:window-x="-9"
     inkscape:window-y="-9"
     inkscape:window-maximized="1"
     inkscape:current-layer="svg9" />
  <defs
     id="defs4">
    <style
       id="style2">
      .cls-1 {
        fill: none;
        stroke-width: 3.52px;
      }

      .cls-1, .cls-2 {
        stroke-linejoin: round;
      }

      .cls-1, .cls-2, .cls-3 {
        stroke-linecap: round;
      }

      .cls-1, .cls-3 {
        stroke: #ae9c86;
      }

      .cls-2 {
        fill: #192436;
        stroke: #e8e2e2;
        stroke-width: 1.72px;
      }

      .cls-3 {
        fill: #ff0;
        stroke-miterlimit: 3.5;
        stroke-width: 3.5px;
      }
    </style>
  </defs>
  <g
     id="layer3"
     transform="matrix(1.001636,0,0,0.25187876,-0.4175444,-4.4071618)">
    <rect
       id="rect1769"
       class="cls-2"
       x="-6.3186889"
       y="-5.4182482"
       width="523.09735"
       height="531.82782" />
  </g>
  <g
     inkscape:groupmode="layer"
     id="layer4"
     inkscape:label="Layer 1"
     transform="translate(0,9.14024)">
    <g
       aria-label="HOTEL OLIMP"
       id="text2838"
       style="font-size:61.3542px;font-family:LTCRecordTitleW00-Regular;-inkscape-font-specification:'LTCRecordTitleW00-Regular, Normal';text-align:center;text-anchor:middle;fill:#e9e2e2;stroke-width:1.55108;stroke-linecap:round;stroke-linejoin:round;stroke-miterlimit:0"
       transform="translate(-5.229928,-210.75024)">
      <path
         d="m 82.395227,260.67122 q 0.674896,0 1.043021,0 0.368125,0 0.797605,0.0614 0.490833,0.0614 0.613541,0.18406 0.122709,0.12271 0.122709,0.42948 0,0.49083 -0.858959,0.67489 -0.674896,0.0614 -1.349792,0.36813 -0.613542,0.24542 -1.104376,0.61354 -0.858959,0.6749 -1.16573,1.90198 -0.245416,1.16573 -0.306771,4.04938 l -0.122708,12.02542 q 0,2.27011 -0.06135,4.47886 0,2.14739 -0.06135,3.86531 0,1.71792 0,2.8223 0,1.04302 0,1.10437 l 0.06135,7.2398 q 0.06135,3.12906 0.184062,4.35614 0.122709,1.22709 0.613542,1.77928 0.552188,0.67489 2.270106,0.98166 1.227084,0.18407 1.533855,0.36813 0.368125,0.18406 0.368125,0.61354 0,0.6749 -1.043021,0.6749 l -1.104376,-0.0614 q -0.858959,0 -1.595209,-0.0614 -0.674896,0 -1.411147,0 -0.73625,-0.0614 -1.227084,-0.0614 h -1.656563 q -0.245417,0 -0.858959,0.0614 -0.552188,0 -1.288438,0 -0.73625,0 -1.472501,0.0614 -0.674896,0 -1.104375,0 h -1.411147 q -0.613542,0 -0.613542,-0.55219 0,-0.49083 0.613542,-0.67489 l 1.227084,-0.24542 q 0.674896,-0.12271 1.349792,-0.73625 0.736251,-0.61354 1.043022,-1.41115 0.429479,-1.10437 0.490833,-2.57687 0.06135,-0.98167 0.122709,-2.20875 0.06135,-1.04302 0.06135,-2.51552 0,-1.47251 0.06135,-3.25178 l 0.06135,-9.20313 q 0,-0.61354 -0.613542,-0.61354 H 49.816147 q -0.184062,0 -0.613542,0 -0.368125,0 -0.797604,0.0614 -0.42948,0 -0.797605,0 -0.368125,0 -0.490834,0 -0.490833,0 -0.674896,0.1227 -0.122708,0.0614 -0.122708,0.49084 v 10.00073 l 0.184062,5.64459 q 0.06135,1.59521 0.122709,2.51552 0.06135,0.92031 0.184062,1.4725 0.122709,0.55219 0.306771,0.85896 0.245417,0.24542 0.613542,0.55219 0.42948,0.30677 1.16573,0.61354 0.797605,0.30677 1.779272,0.42948 1.104376,0.18406 1.104376,0.67489 0,0.36813 -0.306771,0.49084 -0.184063,0.0614 -0.306771,0.0614 -1.472501,0 -2.945002,-0.0614 -1.227084,0 -2.638231,0 -1.411146,-0.0614 -2.515522,-0.0614 -1.043021,0 -1.840626,0.0614 -0.797604,0 -1.288438,0 -0.613542,0.0614 -1.043021,0.0614 -0.42948,0.0614 -0.736251,0.0614 H 36.99312 q -0.490834,0 -0.490834,-0.61355 0,-0.49083 0.490834,-0.67489 l 0.981667,-0.36813 q 0.674896,-0.18406 1.472501,-0.7976 0.858958,-0.6749 1.227084,-1.28844 0.73625,-1.16573 0.73625,-4.47886 v -3.68125 q 0,-1.41114 0,-2.63823 0.06135,-1.22708 0.06135,-1.41114 v -18.52897 q 0,-2.20875 0,-3.74261 0,-1.59521 -0.06135,-2.63823 0,-1.10437 -0.06135,-1.77927 0,-0.73625 -0.06135,-1.28844 -0.122709,-1.22708 -0.674897,-2.08604 -0.490833,-0.92032 -1.4725,-1.22709 -0.184063,-0.0614 -0.490834,-0.0614 -0.306771,-0.0614 -0.613542,-0.12271 -0.368125,-0.0614 -0.797605,-0.0614 -0.552187,-0.0614 -0.552187,-0.49084 0,-0.36812 0.122708,-0.49083 0.184063,-0.12271 0.73625,-0.12271 h 1.59521 q 1.043021,0 2.086042,0.0614 1.104376,0 2.147397,0 1.349793,0 2.760939,0 1.472501,-0.0614 3.435835,-0.0614 h 1.043022 q 0.920313,0 0.920313,0.61354 0,0.61355 -1.411147,0.79761 -0.858959,0.12271 -1.595209,0.55219 -0.73625,0.36812 -1.227084,0.98166 -0.306771,0.42948 -0.490834,0.92032 -0.184062,0.42948 -0.306771,1.22708 -0.122708,0.7976 -0.184062,1.96333 0,1.16573 0,2.94501 l 0.06135,11.04375 q 0,0.73625 0.429479,0.73625 h 27.732098 q 0.797605,0 0.797605,-1.16573 -0.06135,-1.77927 -0.06135,-3.31312 -0.06135,-1.28844 -0.06135,-2.51553 0,-1.22708 0,-1.71791 v -5.89001 q 0,-1.77927 -0.429479,-3.12906 -0.429479,-1.41115 -1.227084,-2.02469 -0.429479,-0.42948 -1.779272,-0.61354 l -1.595209,-0.24542 q -0.429479,-0.12271 -0.429479,-0.55219 0,-0.67489 0.981667,-0.67489 l 3.435835,0.12271 q 1.288438,0.0614 2.392814,0.0614 1.165729,0 1.288438,0 1.90198,0 2.883647,-0.0614 1.043022,-0.0614 1.656564,-0.0614 z"
         id="path2904" />
      <path
         d="m 114.97434,307.8526 q 4.2948,0 7.66928,-1.41115 3.43583,-1.4725 5.76729,-4.17208 2.39282,-2.69959 3.6199,-6.5649 1.28844,-3.86532 1.28844,-8.7123 0,-5.82865 -1.96334,-10.67563 -1.96333,-4.90833 -5.76729,-8.52823 -2.82229,-2.63823 -5.82865,-3.80396 -3.00635,-1.16573 -7.17844,-1.16573 -3.6199,0 -6.13542,0.7976 -2.51552,0.79761 -4.96969,2.69959 -3.681252,2.82229 -5.399169,6.5649 -1.717918,3.7426 -1.717918,8.95771 0,5.27646 1.656563,10.00073 1.656564,4.72428 4.478854,8.28282 2.8223,3.55854 6.5649,5.64459 3.74261,2.08604 7.91469,2.08604 z M 114.91299,310 q -4.66292,0 -8.58959,-1.22709 -3.92667,-1.22708 -6.31948,-2.82229 -4.969691,-3.31313 -7.73063,-9.14178 -2.699584,-5.89 -2.699584,-13.2525 0,-5.03105 1.779271,-9.26449 1.779272,-4.29479 4.908336,-7.42385 3.190418,-3.12907 7.485217,-4.84699 4.35614,-1.77927 9.44854,-1.77927 4.23344,0 7.97605,0.98167 3.7426,0.92031 6.62625,2.69958 2.45417,1.53386 4.4175,3.80396 2.02469,2.27011 3.43584,5.03105 1.41115,2.76094 2.1474,5.95136 0.73625,3.12906 0.73625,6.50354 0,1.4725 -0.18407,3.00636 -0.12271,1.53385 -0.42948,3.19042 -0.67489,3.7426 -1.96333,6.44219 -1.28844,2.69958 -3.55854,5.15375 -3.31313,3.49719 -7.54657,5.21511 -4.17209,1.65656 -9.38719,1.77927 z"
         id="path2906" />
      <path
         d="m 141.29531,261.46883 q 0.12271,-0.61355 0.24541,-0.73625 0.12271,-0.12271 0.49084,-0.12271 4.96969,0.12271 8.95771,0.18406 1.71792,0 3.31313,0.0614 1.65656,0 3.00635,0.0614 1.3498,0 2.20876,0 0.85895,0 1.04302,0 h 15.82938 l 3.25177,-0.18406 q 0.6749,0 0.85896,0.30677 0.18406,0.24541 0.18406,1.16573 0,0.36812 -0.0614,0.67489 0,0.30677 -0.0613,0.61354 l -1.10438,4.66292 q -0.12271,0.61355 -0.6749,0.61355 -0.49083,0 -0.49083,-0.55219 0,-0.30677 0.0614,-0.61354 0.0614,-0.36813 0.0614,-0.79761 0,-1.04302 -0.18406,-1.34979 -0.12271,-0.36813 -0.6749,-0.6749 -0.85896,-0.49083 -2.57688,-0.67489 -1.65656,-0.18407 -4.66292,-0.18407 -1.59521,0 -3.06771,0.0614 -1.41114,0 -2.45416,0.12271 l -1.3498,0.12271 q -0.73625,0.0614 -0.7976,0.61354 -0.0614,0.36812 -0.0614,0.67489 V 266.5 303.61929 q 0,1.77927 0.92031,2.69959 0.92031,0.85895 3.12906,1.28843 l 1.28844,0.24542 q 0.30677,0.12271 0.6749,0.18406 0.36812,0.0614 0.36812,0.55219 0,0.6749 -0.7976,0.6749 h -1.22709 l -13.86605,-0.0614 q -0.24541,0 -0.67489,0 -0.36813,0.0614 -0.61354,0.0614 -0.49084,0 -0.49084,-0.6749 0,-0.30677 0.30677,-0.49083 0.12271,-0.0614 0.61355,-0.18407 0.24541,-0.0614 0.49083,-0.0614 l 2.1474,-0.42948 q 0.85895,-0.18406 1.4725,-0.73625 0.67489,-0.55219 0.92031,-1.22708 0.30677,-0.79761 0.36812,-2.8223 0.12271,-2.02469 0.12271,-5.89 l 0.12271,-30.79981 q 0,-0.73625 -0.12271,-1.16573 -0.0613,-0.42948 -0.42948,-0.61354 -0.36812,-0.24542 -1.10437,-0.30677 -0.6749,-0.0614 -1.90198,-0.0614 -0.92031,0 -1.96334,0 -1.04302,0 -2.2701,0.0614 -2.51552,0.12271 -3.86532,0.30677 -1.28843,0.18406 -2.20875,0.55219 -1.90198,0.73625 -3.31312,3.86531 -0.12271,0.30677 -0.24542,0.42948 -0.12271,0.0614 -0.30677,0.0614 -0.55219,0 -0.55219,-0.36813 0,-0.12271 0.12271,-0.49083 l 0.55219,-1.84063 0.55218,-2.76094 z"
         id="path2908" />
      <path
         d="m 196.08459,263.49351 q -0.67489,0.0614 -0.92031,0.18407 -0.24542,0.12271 -0.24542,0.55219 l -0.0614,1.77927 v 14.35688 1.53385 q 0,0.49084 0.0614,0.61355 0.12271,0.0614 0.49084,0.0614 h 9.26448 q 1.28844,0 2.08604,-0.0614 0.85896,-0.12271 1.3498,-0.36813 0.49083,-0.30677 0.73625,-0.7976 0.30677,-0.55219 0.42948,-1.3498 0.1227,-0.73625 0.30677,-0.98166 0.18406,-0.30677 0.49083,-0.30677 0.49083,0 0.49083,0.67489 l -0.18406,2.08604 v 3.37449 l 0.36813,4.35614 v 0.92032 q 0,0.49083 -0.42948,0.49083 -0.30677,0 -0.49084,-0.30677 -0.18406,-0.36813 -0.30677,-1.41115 -0.30677,-1.77927 -1.22708,-2.51552 -0.85896,-0.7976 -2.63823,-0.85896 -0.6749,-0.0614 -1.59521,-0.0614 -0.79761,0 -1.90198,0 -1.10438,0 -2.45417,-0.0614 -0.42948,0 -1.10438,0.0614 -0.67489,0 -1.34979,0.0614 -0.7976,0.0614 -1.71792,0.0614 h -0.42947 q -0.18407,0.1227 -0.18407,0.42948 l 0.24542,14.78636 q 0,1.84062 0.12271,3.00635 0.18406,1.10438 0.49083,1.77927 0.36813,0.61355 0.98167,0.85896 0.67489,0.18407 1.71792,0.24542 1.10437,0.0614 1.77927,0.12271 0.67489,0 0.98167,0.0614 0.36812,0 0.49083,0 0.18406,0 0.30677,0 1.28844,0 2.63823,-0.0614 1.34979,-0.0614 2.51552,-0.18406 1.16573,-0.12271 2.08605,-0.24542 0.92031,-0.12271 1.28843,-0.30677 0.79761,-0.30677 1.71792,-1.04302 0.92031,-0.73625 1.41115,-1.41115 0.30677,-0.49083 0.55219,-1.04302 0.30677,-0.61354 0.61354,-1.53386 0.12271,-0.61354 0.55219,-0.61354 0.55218,0 0.55218,0.55219 0,0.42948 -0.24541,1.53385 -0.18407,1.04303 -0.49084,2.08605 l -0.73625,2.63823 q -0.30677,1.28844 -0.61354,1.65656 -0.30677,0.30677 -1.16573,0.30677 h -1.10438 q -0.7976,0 -3.31312,-0.0614 -2.45417,-0.0614 -6.68761,-0.0614 -5.70594,0 -9.57125,0.0614 -3.80396,0.0614 -5.03105,0.12271 l -1.16573,0.0614 q -0.49083,0 -0.49083,-0.42948 0,-0.30677 0.24541,-0.42948 0.24542,-0.18406 1.16573,-0.36812 0.55219,-0.12271 1.28844,-0.42948 0.73625,-0.36813 1.16573,-0.6749 0.49084,-0.36812 0.6749,-0.98167 0.24542,-0.67489 0.30677,-2.08604 l 0.0614,-2.88365 v -20.43094 q 0,-3.43584 -0.0614,-6.25813 0,-1.16573 -0.0614,-2.33146 0,-1.22709 -0.0614,-2.1474 0,-0.98167 0,-1.59521 0,-0.67489 0,-0.7976 -0.12271,-1.65657 -0.24542,-2.76094 -0.1227,-1.10438 -0.61354,-1.77927 -0.55219,-0.79761 -1.90198,-0.85896 l -1.4725,-0.12271 q -0.61354,-0.12271 -0.61354,-0.61354 0,-0.61354 0.98167,-0.61354 l 6.38083,0.1227 q 1.16573,0 2.33146,0.0614 1.16573,0 2.08605,0.0614 0.92031,0 1.53385,0 0.61354,0 0.6749,0 5.33781,-0.12271 8.22146,-0.18406 2.945,-0.0614 4.29479,-0.0614 1.41115,-0.0614 1.65657,-0.0614 0.24541,0 0.30677,0 0.36812,0 0.55219,0.30677 0.24541,0.30677 0.24541,0.73625 v 0.49084 q -0.0614,0.30677 -0.0614,0.67489 0,0.30677 0,0.6749 0,0.98167 0.0614,1.96333 0.0614,0.98167 0.18406,1.84063 0.0614,0.30677 0.0614,0.55219 0.0614,0.18406 0.0614,0.36812 0,0.98167 -0.61354,0.98167 -0.42948,0 -0.6749,-0.6749 l -0.36812,-1.16573 q -0.36813,-1.16573 -0.92031,-1.96333 -0.49084,-0.79761 -1.28844,-1.22708 -0.79761,-0.49084 -1.96334,-0.6749 -1.16573,-0.18406 -2.82229,-0.18406 h -7.66927 z"
         id="path2910" />
      <path
         d="m 233.44932,260.79393 q 0.61355,0 0.61355,0.55219 0,0.61354 -1.53386,0.73625 -0.55219,0.0613 -1.22708,0.18406 -0.6749,0.12271 -1.04303,0.42948 -0.49083,0.36813 -0.7976,0.92031 -0.24542,0.49084 -0.30677,2.39282 -0.0614,2.02469 -0.12271,3.61989 -0.0614,1.41115 -0.12271,2.63824 0,1.16572 0,1.28843 l 0.0614,22.6397 q 0,3.6199 0.12271,5.58323 0.1227,1.90198 0.36812,3.06771 0.24542,1.16573 0.98167,1.59521 0.7976,0.36813 2.945,0.36813 l 4.35615,-0.0614 q 2.57687,-0.0614 4.4175,-0.30677 1.84063,-0.30677 3.12906,-0.92031 1.28844,-0.61354 2.1474,-1.59521 0.85896,-1.04302 1.41115,-2.57687 0.36812,-0.85896 0.85896,-0.85896 0.55218,0 0.55218,0.49083 0,0.30677 -0.18406,1.10438 l -1.71792,6.19677 q -0.30677,0.92031 -1.04302,0.92031 h -27.0572 q -0.6749,0 -0.6749,-0.42948 0,-0.36812 0.18407,-0.49083 0.18406,-0.12271 0.85896,-0.24542 0.61354,-0.12271 1.41114,-0.36812 0.79761,-0.30677 1.28844,-0.61354 0.61354,-0.30678 0.73625,-0.85896 0.18406,-0.61355 0.30677,-1.77927 l 0.12271,-2.20876 v -29.20459 q 0,-2.94501 -0.12271,-5.03105 -0.0614,-2.1474 -0.24542,-3.31313 -0.18406,-1.22708 -0.67489,-1.71791 -0.49083,-0.49084 -1.65656,-0.61355 -0.6749,-0.1227 -1.10438,-0.1227 -0.36813,-0.0614 -0.49083,-0.12271 -0.73625,-0.0614 -0.73625,-0.6749 0,-0.55219 0.61354,-0.55219 l 6.62625,0.12271 z"
         id="path2912" />
      <path
         d="m 302.41143,307.8526 q 4.2948,0 7.66928,-1.41115 3.43583,-1.4725 5.76729,-4.17208 2.39281,-2.69959 3.6199,-6.5649 1.28844,-3.86532 1.28844,-8.7123 0,-5.82865 -1.96334,-10.67563 -1.96333,-4.90833 -5.76729,-8.52823 -2.8223,-2.63823 -5.82865,-3.80396 -3.00636,-1.16573 -7.17844,-1.16573 -3.6199,0 -6.13542,0.7976 -2.51552,0.79761 -4.96969,2.69959 -3.68125,2.82229 -5.39917,6.5649 -1.71792,3.7426 -1.71792,8.95771 0,5.27646 1.65656,10.00073 1.65657,4.72428 4.47886,8.28282 2.82229,3.55854 6.5649,5.64459 3.74261,2.08604 7.91469,2.08604 z M 302.35008,310 q -4.66292,0 -8.58959,-1.22709 -3.92667,-1.22708 -6.31948,-2.82229 -4.96969,-3.31313 -7.73063,-9.14178 -2.69959,-5.89 -2.69959,-13.2525 0,-5.03105 1.77928,-9.26449 1.77927,-4.29479 4.90833,-7.42385 3.19042,-3.12907 7.48521,-4.84699 4.35615,-1.77927 9.44855,-1.77927 4.23344,0 7.97605,0.98167 3.7426,0.92031 6.62625,2.69958 2.45417,1.53386 4.4175,3.80396 2.02469,2.27011 3.43584,5.03105 1.41114,2.76094 2.14739,5.95136 0.73625,3.12906 0.73625,6.50354 0,1.4725 -0.18406,3.00636 -0.12271,1.53385 -0.42948,3.19042 -0.67489,3.7426 -1.96333,6.44219 -1.28844,2.69958 -3.55855,5.15375 -3.31312,3.49719 -7.54656,5.21511 -4.17209,1.65656 -9.38719,1.77927 z"
         id="path2914" />
      <path
         d="m 344.0096,260.79393 q 0.61354,0 0.61354,0.55219 0,0.61354 -1.53386,0.73625 -0.55219,0.0613 -1.22708,0.18406 -0.6749,0.12271 -1.04302,0.42948 -0.49084,0.36813 -0.79761,0.92031 -0.24541,0.49084 -0.30677,2.39282 -0.0614,2.02469 -0.12271,3.61989 -0.0614,1.41115 -0.12271,2.63824 0,1.16572 0,1.28843 l 0.0614,22.6397 q 0,3.6199 0.12271,5.58323 0.12271,1.90198 0.36812,3.06771 0.24542,1.16573 0.98167,1.59521 0.7976,0.36813 2.945,0.36813 l 4.35615,-0.0614 q 2.57688,-0.0614 4.4175,-0.30677 1.84063,-0.30677 3.12907,-0.92031 1.28843,-0.61354 2.14739,-1.59521 0.85896,-1.04302 1.41115,-2.57687 0.36812,-0.85896 0.85896,-0.85896 0.55219,0 0.55219,0.49083 0,0.30677 -0.18407,1.10438 l -1.71791,6.19677 q -0.30678,0.92031 -1.04303,0.92031 h -27.0572 q -0.67489,0 -0.67489,-0.42948 0,-0.36812 0.18406,-0.49083 0.18406,-0.12271 0.85896,-0.24542 0.61354,-0.12271 1.41114,-0.36812 0.79761,-0.30677 1.28844,-0.61354 0.61354,-0.30678 0.73625,-0.85896 0.18407,-0.61355 0.30677,-1.77927 l 0.12271,-2.20876 v -29.20459 q 0,-2.94501 -0.12271,-5.03105 -0.0614,-2.1474 -0.24541,-3.31313 -0.18407,-1.22708 -0.6749,-1.71791 -0.49083,-0.49084 -1.65656,-0.61355 -0.6749,-0.1227 -1.10438,-0.1227 -0.36812,-0.0614 -0.49083,-0.12271 -0.73625,-0.0614 -0.73625,-0.6749 0,-0.55219 0.61354,-0.55219 l 6.62625,0.12271 z"
         id="path2916" />
      <path
         d="m 375.72971,301.53312 q 0,1.34979 0.0614,2.2701 0.0614,0.85896 0.18407,1.4725 0.18406,0.55219 0.36812,0.92032 0.24542,0.36812 0.61354,0.67489 0.85896,0.6749 2.94501,1.04302 1.10437,0.18407 1.10437,0.73625 0,0.61355 -0.61354,0.61355 l -1.04302,-0.0614 q -1.16573,-0.0614 -2.945,-0.12271 -1.71792,-0.0614 -4.04938,-0.0614 -1.65656,0 -2.88365,0.0614 -1.22708,0.0614 -2.08604,0.12271 l -0.85896,0.0614 q -0.61354,0 -0.61354,-0.61355 0,-0.30677 0.24542,-0.49083 0.30677,-0.24542 1.22708,-0.49083 1.96333,-0.61354 2.69958,-2.1474 0.24542,-0.55219 0.36813,-1.10437 0.18406,-0.55219 0.24542,-1.77928 0.0614,-1.22708 0.0614,-3.37448 0.0614,-2.20875 0.0614,-6.01271 l 0.0614,-24.72574 q 0,-1.71792 -0.18406,-3.12907 -0.30677,-2.69958 -2.08605,-3.19041 -0.18406,-0.0614 -0.55218,-0.12271 -0.30678,-0.0614 -0.61355,-0.12271 -0.36812,-0.0614 -0.7976,-0.12271 -0.55219,-0.0614 -0.55219,-0.49083 0,-0.6749 0.98167,-0.6749 0.92031,0 2.1474,0.0614 1.22708,0.0614 2.2701,0.0614 h 2.33146 q 2.1474,0 3.55854,0 1.4725,0 2.88365,-0.12271 0.61354,0 0.61354,0.49084 0,0.67489 -1.34979,0.92031 -1.96333,0.49083 -2.82229,1.59521 -0.42948,0.55219 -0.6749,1.53385 -0.24542,1.22709 -0.36812,4.35615 -0.12271,3.06771 -0.12271,6.93302 v 16.38158 z"
         id="path2918" />
      <path
         d="m 428.4943,275.0281 q -0.1227,-0.61354 -0.36812,-0.61354 -0.24542,0 -0.36813,0.30677 l -0.98166,2.02469 q -1.59521,3.25177 -3.19042,6.99438 -1.53386,3.68125 -3.31313,7.97605 -2.57688,6.31948 -4.29479,10.36886 -1.65657,4.04937 -2.57688,5.89 l -0.6749,1.34979 q -0.24541,0.49083 -0.55218,0.49083 -0.42948,0 -0.6749,-0.55218 l -0.92031,-1.96334 q -1.28844,-2.76094 -3.06771,-6.81031 -1.77927,-4.11073 -4.04938,-9.69397 -2.08604,-5.15375 -3.74261,-8.89636 -1.5952,-3.7426 -2.88364,-6.25812 l -0.85896,-1.65657 q -0.30677,-0.42948 -0.42948,-0.42948 -0.24542,0 -0.36813,0.24542 l -0.18406,1.16573 -2.1474,26.38231 -0.0614,2.57687 q 0,0.92031 0.0614,1.41115 0.0614,0.42948 0.36813,0.92031 0.18406,0.30677 0.42948,0.55219 0.30677,0.18406 0.73625,0.36812 0.49083,0.18407 1.22708,0.36813 0.73625,0.12271 1.90198,0.30677 0.85896,0.0614 0.85896,0.6749 0,0.67489 -1.04302,0.67489 l -2.45417,-0.0614 q -1.04302,-0.0614 -2.39281,-0.0614 -1.28844,0 -2.20875,0 -0.98167,0 -1.77927,0 -0.73625,0 -1.3498,0.0614 l -1.04302,0.0614 q -0.67489,0 -0.67489,-0.49083 0,-0.49083 1.10437,-0.73625 1.41115,-0.30677 2.08604,-0.98167 0.6749,-0.73625 0.92032,-2.1474 l 0.36812,-2.39281 q 0,-0.12271 0.0614,-0.6749 0.0614,-0.55218 0.12271,-1.41114 0.1227,-0.85896 0.24541,-1.90198 0.12271,-1.04302 0.24542,-2.1474 0.24542,-2.51552 0.55219,-5.64459 l 1.71791,-19.32657 q 0.30678,-3.43583 0.42948,-5.2151 0.12271,-1.84063 0.12271,-3.06771 v -0.55219 q 0,-1.41115 0.18406,-1.96334 0.24542,-0.61354 0.73626,-0.61354 0.61354,0 1.22708,1.53386 l 3.55854,8.89635 q 0.18407,0.49084 0.85896,2.08605 0.73625,1.59521 1.65656,3.80396 0.98167,2.20875 2.1474,4.90833 1.22709,2.69959 2.45417,5.39917 2.82229,6.38084 6.31948,14.11147 0.12271,0.42948 0.36813,0.42948 0.18406,0 0.42948,-0.42948 l 1.71791,-4.04938 q 1.04303,-2.39281 2.69959,-6.19677 1.71792,-3.86532 4.04938,-9.20313 2.76093,-6.19678 4.78562,-10.9824 2.02469,-4.78563 3.37448,-8.28282 l 0.42948,-1.10438 q 0.36813,-0.85895 0.85896,-0.85895 0.6749,0 0.79761,1.16573 l 0.49083,8.34417 q 0.0614,1.65656 0.18406,3.00635 0.12271,1.16573 0.12271,2.27011 0.0614,1.04302 0.12271,1.28844 l 1.41115,24.54167 q 0.18406,3.6199 1.04302,5.15376 0.92031,1.53385 3.00635,1.84062 1.53386,0.18407 1.53386,0.92032 0,0.67489 -1.28844,0.67489 h -0.24542 -2.69958 q -1.04302,0 -2.02469,0 -0.92031,-0.0614 -1.04302,-0.0614 -0.18406,0 -0.92031,0.0614 -0.6749,0 -1.41115,0 -0.92031,0.0614 -1.96333,0.0614 -0.12271,0 -0.49084,0 -0.30677,0 -0.67489,0 -0.36813,0.0614 -0.6749,0.0614 -0.30677,0 -0.30677,0 -0.6749,0 -0.6749,-0.61354 0,-0.42948 0.85896,-0.79761 1.71792,-0.61354 2.63823,-1.71791 0.92031,-1.16573 0.92031,-2.63823 0,-0.49084 -0.0614,-1.22709 0,-0.7976 -0.0613,-1.90198 l -0.24542,-4.78563 z"
         id="path2920" />
      <path
         d="m 444.50769,309.20239 q -0.85896,0 -0.85896,-0.49083 0,-0.42948 0.73625,-0.61354 1.77928,-0.55219 2.51553,-1.04302 0.7976,-0.49084 1.16573,-1.3498 0.42948,-1.10437 0.55218,-2.45416 0.12271,-1.59521 0.18407,-4.60157 0.12271,-3.06771 0.12271,-6.38084 l 0.1227,-24.17355 q -0.0614,-0.7976 -0.0614,-1.4725 -0.0614,-0.61354 -0.0614,-1.16573 0,-0.61354 -0.0614,-0.92031 -0.12271,-1.04303 -0.55219,-1.59521 -0.42948,-0.61355 -1.34979,-0.85896 l -1.71792,-0.24542 q -0.7976,-0.18406 -0.7976,-0.67489 0,-0.55219 0.61354,-0.55219 l 14.11147,0.24541 q 1.41114,0.0614 2.63823,0.12271 1.22708,0.0614 2.2701,0.24542 2.20875,0.30677 4.17209,1.34979 2.02469,1.04302 3.25177,2.57688 1.22708,1.41114 1.84063,3.31312 0.61354,1.90198 0.61354,3.98803 0,3.06771 -1.04302,5.64458 -1.04302,2.51553 -2.945,4.35615 -1.84063,1.77927 -4.47886,2.8223 -2.57688,0.98166 -5.70594,0.98166 -0.6749,0 -1.22709,0 -0.55218,-0.0614 -0.98166,-0.12271 l -1.34979,-0.30677 q -0.49084,0 -0.49084,-0.42948 0,-0.55218 1.22709,-0.67489 5.76729,-0.42948 8.95771,-3.12907 3.19042,-2.76094 3.19042,-7.30115 0,-3.19041 -1.22709,-5.52187 -1.16573,-2.39282 -3.37448,-3.6199 -3.06771,-1.65657 -8.65094,-1.65657 -1.16573,0 -1.59521,0.18407 -0.36812,0.18406 -0.36812,0.67489 l -0.0614,1.96334 q -0.18406,5.52188 -0.24542,11.35052 -0.0613,5.7673 -0.0613,11.28918 0,2.945 0.0613,5.64458 0.0614,2.69959 0.0614,5.21511 v 3.25177 q 0,1.90198 0.73625,2.88365 0.7976,0.98167 2.51552,1.53386 0.73625,0.24541 1.22709,0.36812 0.49083,0.0614 1.22708,0.18406 0.49083,0.0614 0.49083,0.61354 0,0.49084 -0.7976,0.55219 h -0.85896 z"
         id="path2922" />
    </g>
    <g
       id="g15"
       transform="translate(-3.79,-210.75024)">
      <path
         id="path2561"
         class="cls-3"
         d="m 34.78,234.53 186.19,0.3" />
      <path
         id="path2561-2"
         class="cls-3"
         d="m 286.61,234.89 186.19,0.3" />
      <g
         id="layer1">
        <path
           id="path4095-9"
           class="cls-1"
           d="m 253.69,214.98 -6.02,13.56 -10.9,-6.4 3.28,18.75 13.49,-0.15" />
        <path
           id="path4095-3-2"
           class="cls-1"
           d="m 253.9,214.98 6.02,13.56 10.9,-6.4 -3.28,18.75 -13.49,-0.15" />
      </g>
    </g>
  </g>
</svg>
